<mxfile host="app.diagrams.net" modified="2023-06-22T17:25:15.808Z" agent="Mozilla/5.0 (Windows NT 10.0; Win64; x64) AppleWebKit/537.36 (KHTML, like Gecko) Chrome/114.0.0.0 Safari/537.36 Edg/114.0.1823.51" etag="Wbv1mqIEVhjRvNI2lrRn" version="21.5.0" type="github">
  <diagram name="Page-1" id="1So7QPZy61Bhiam6hHsv">
    <mxGraphModel dx="1987" dy="1771" grid="1" gridSize="10" guides="1" tooltips="1" connect="1" arrows="1" fold="1" page="1" pageScale="1" pageWidth="850" pageHeight="1100" math="0" shadow="0">
      <root>
        <mxCell id="0" />
        <mxCell id="1" parent="0" />
        <mxCell id="WXrp-uN07uE1j_KBOkGB-41" value="" style="rounded=0;whiteSpace=wrap;html=1;fillColor=#dae8fc;strokeColor=#6c8ebf;" vertex="1" parent="1">
          <mxGeometry x="-834.27" y="-681.5" width="819.55" height="516" as="geometry" />
        </mxCell>
        <mxCell id="WXrp-uN07uE1j_KBOkGB-42" value="" style="image;aspect=fixed;html=1;points=[];align=center;fontSize=12;image=img/lib/azure2/general/Subscriptions.svg;" vertex="1" parent="1">
          <mxGeometry x="-46.450000000000045" y="-714" width="44" height="71" as="geometry" />
        </mxCell>
        <mxCell id="WXrp-uN07uE1j_KBOkGB-43" value="&lt;b&gt;Domain Subscription&lt;/b&gt;" style="text;html=1;strokeColor=none;fillColor=none;align=center;verticalAlign=middle;whiteSpace=wrap;rounded=0;" vertex="1" parent="1">
          <mxGeometry x="-105.00000000000004" y="-691.5" width="70" height="46" as="geometry" />
        </mxCell>
        <mxCell id="WXrp-uN07uE1j_KBOkGB-44" value="" style="rounded=0;whiteSpace=wrap;html=1;" vertex="1" parent="1">
          <mxGeometry x="-767.93" y="-1025.25" width="300" height="203.25" as="geometry" />
        </mxCell>
        <mxCell id="WXrp-uN07uE1j_KBOkGB-45" value="&lt;b&gt;DC - 3&lt;/b&gt;" style="text;html=1;strokeColor=none;fillColor=none;align=center;verticalAlign=middle;whiteSpace=wrap;rounded=0;" vertex="1" parent="1">
          <mxGeometry x="-570.93" y="-1025.25" width="60" height="30" as="geometry" />
        </mxCell>
        <mxCell id="WXrp-uN07uE1j_KBOkGB-46" value="&lt;b&gt;DC - 2&lt;/b&gt;" style="text;html=1;strokeColor=none;fillColor=none;align=center;verticalAlign=middle;whiteSpace=wrap;rounded=0;" vertex="1" parent="1">
          <mxGeometry x="-739.93" y="-1025.25" width="60" height="30" as="geometry" />
        </mxCell>
        <mxCell id="WXrp-uN07uE1j_KBOkGB-47" value="" style="rounded=0;whiteSpace=wrap;html=1;" vertex="1" parent="1">
          <mxGeometry x="-297.32" y="-1006.75" width="232" height="140" as="geometry" />
        </mxCell>
        <mxCell id="WXrp-uN07uE1j_KBOkGB-48" value="&lt;b&gt;Domanin Controller&lt;/b&gt;" style="text;html=1;strokeColor=none;fillColor=none;align=center;verticalAlign=middle;whiteSpace=wrap;rounded=0;" vertex="1" parent="1">
          <mxGeometry x="-197.07" y="-916.75" width="63.5" height="30" as="geometry" />
        </mxCell>
        <mxCell id="WXrp-uN07uE1j_KBOkGB-49" value="" style="sketch=0;pointerEvents=1;shadow=0;dashed=0;html=1;strokeColor=none;fillColor=#505050;labelPosition=center;verticalLabelPosition=bottom;verticalAlign=top;outlineConnect=0;align=center;shape=mxgraph.office.servers.on_premises_server;" vertex="1" parent="1">
          <mxGeometry x="-185.57" y="-986.75" width="44" height="58" as="geometry" />
        </mxCell>
        <mxCell id="WXrp-uN07uE1j_KBOkGB-50" value="" style="endArrow=classic;startArrow=classic;html=1;rounded=0;dashed=1;" edge="1" parent="1">
          <mxGeometry width="50" height="50" relative="1" as="geometry">
            <mxPoint x="-660.43" y="-986.47" as="sourcePoint" />
            <mxPoint x="-564.93" y="-986.19" as="targetPoint" />
          </mxGeometry>
        </mxCell>
        <mxCell id="WXrp-uN07uE1j_KBOkGB-51" value="" style="rounded=0;whiteSpace=wrap;html=1;fillColor=#bac8d3;strokeColor=#23445d;" vertex="1" parent="1">
          <mxGeometry x="-357.32" y="-916.75" width="150" height="90" as="geometry" />
        </mxCell>
        <mxCell id="WXrp-uN07uE1j_KBOkGB-52" value="" style="image;aspect=fixed;html=1;points=[];align=center;fontSize=12;image=img/lib/azure2/identity/Azure_Active_Directory.svg;" vertex="1" parent="1">
          <mxGeometry x="-347.32" y="-894.75" width="70" height="64" as="geometry" />
        </mxCell>
        <mxCell id="WXrp-uN07uE1j_KBOkGB-53" value="Active Directory&lt;div style=&quot;text-align: center;&quot;&gt;&lt;/div&gt;" style="text;whiteSpace=wrap;html=1;" vertex="1" parent="1">
          <mxGeometry x="-307.32" y="-906.75" width="91.25" height="25" as="geometry" />
        </mxCell>
        <mxCell id="WXrp-uN07uE1j_KBOkGB-54" value="&lt;span style=&quot;font-weight: normal;&quot;&gt;On-Premises&lt;/span&gt;&lt;div style=&quot;text-align: center;&quot;&gt;&lt;/div&gt;" style="text;whiteSpace=wrap;html=1;fontStyle=1" vertex="1" parent="1">
          <mxGeometry x="-141.57" y="-986.75" width="120" height="40" as="geometry" />
        </mxCell>
        <mxCell id="WXrp-uN07uE1j_KBOkGB-55" value="&lt;span style=&quot;font-weight: normal;&quot;&gt;On-Premises&lt;/span&gt;&lt;div style=&quot;text-align: center;&quot;&gt;&lt;/div&gt;" style="text;whiteSpace=wrap;html=1;fontStyle=1;strokeColor=none;fillColor=none;" vertex="1" parent="1">
          <mxGeometry x="-654.93" y="-986.25" width="80" height="34" as="geometry" />
        </mxCell>
        <mxCell id="WXrp-uN07uE1j_KBOkGB-56" value="&lt;font style=&quot;font-size: 10px;&quot;&gt;Azure AD connect&lt;/font&gt;&lt;div style=&quot;&quot;&gt;&lt;/div&gt;" style="text;whiteSpace=wrap;html=1;align=center;rotation=0;" vertex="1" parent="1">
          <mxGeometry x="-405.21999999999997" y="-798.49" width="63.02" height="32.12" as="geometry" />
        </mxCell>
        <mxCell id="WXrp-uN07uE1j_KBOkGB-57" value="" style="endArrow=none;dashed=1;html=1;rounded=0;" edge="1" parent="1">
          <mxGeometry width="50" height="50" relative="1" as="geometry">
            <mxPoint x="-17.319999999999993" y="-1046.75" as="sourcePoint" />
            <mxPoint x="-17.319999999999993" y="-806.75" as="targetPoint" />
          </mxGeometry>
        </mxCell>
        <mxCell id="WXrp-uN07uE1j_KBOkGB-58" value="" style="endArrow=none;dashed=1;html=1;rounded=0;" edge="1" parent="1">
          <mxGeometry width="50" height="50" relative="1" as="geometry">
            <mxPoint x="-17.319999999999993" y="-1046.75" as="sourcePoint" />
            <mxPoint x="-377.32" y="-1046.75" as="targetPoint" />
          </mxGeometry>
        </mxCell>
        <mxCell id="WXrp-uN07uE1j_KBOkGB-59" value="" style="endArrow=none;dashed=1;html=1;rounded=0;" edge="1" parent="1">
          <mxGeometry width="50" height="50" relative="1" as="geometry">
            <mxPoint x="-817" y="-810" as="sourcePoint" />
            <mxPoint x="-817" y="-1050" as="targetPoint" />
          </mxGeometry>
        </mxCell>
        <mxCell id="WXrp-uN07uE1j_KBOkGB-60" value="" style="endArrow=none;dashed=1;html=1;rounded=0;" edge="1" parent="1">
          <mxGeometry width="50" height="50" relative="1" as="geometry">
            <mxPoint x="-814.57" y="-807" as="sourcePoint" />
            <mxPoint x="-370" y="-807" as="targetPoint" />
          </mxGeometry>
        </mxCell>
        <mxCell id="WXrp-uN07uE1j_KBOkGB-61" value="" style="endArrow=none;dashed=1;html=1;rounded=0;" edge="1" parent="1">
          <mxGeometry width="50" height="50" relative="1" as="geometry">
            <mxPoint x="-816" y="-1047" as="sourcePoint" />
            <mxPoint x="-376" y="-1047" as="targetPoint" />
          </mxGeometry>
        </mxCell>
        <mxCell id="WXrp-uN07uE1j_KBOkGB-62" value="" style="shape=image;verticalLabelPosition=bottom;labelBackgroundColor=default;verticalAlign=top;aspect=fixed;imageAspect=0;image=data:image/png,iVBORw0KGgoAAAANSUhEUgAAAIkAAACpCAYAAAAfiB7/AAAAAXNSR0IArs4c6QAAAARnQU1BAACxjwv8YQUAAAAJcEhZcwAADsMAAA7DAcdvqGQAABx7SURBVHhe7Z0HmF1VtcfPbTOTZFIgCQkJBEITCImSEAgISBNF+T7e433YEFQQsH2oqIhiwwoighWeiAiKFJ+IPBE+gjGEDsqDIKSQUENLIXVmMnPbO2ut/ZuyZ27OTG4yMzfZf75/FufeU/Y5s9f/rr12OalyjKgfUHK2t6hUqJSzIO1sIpLu0v/ev5C33df78dHrcg8C1Gwl6faQk/7ISSdMegr++Rwq3ZdfPn+/WqoktVTWgAFC7StJ+47eFbopiecP/gXc14WiWZDNuP/h9N5xZXedknf6jFec1nxebTqbVZvLVJCmQYigJAGJGLRKkoRuSuIrSrujuj3Z9vYvONvK997unK7B2W5e5XYsOcVp/9674WLJLpTJtp+5ZtDtngMCfAx6Jel1LfbvwtsmZugIOaxERXeFZv03ilqcBUOcbXS2zr+RSk+PgteecHRDUJKARAxaJelt7aX4qZTnst5dFd3XKEkpKqhtiqy1cd8bG9Uuev1NtaW0bU8Zt6Pao3YapXaEiy2ilB3f3moq0wxyCEoSsD1hEMckPR/h12qKXyi2qY3S5rq5dIPaQrt22JFZ59obSqYUq9x+lz/5itrniqYIxbQdt1fGFOOiqbupHVV0j8spTZSy49slwxW72GLfZ4bxfe0iKElAImpISbpup139Ljnbqv9G0dqy7ZdP2edECn5owOfPOPvL+a+rXZZxCpSxWGXXvLV7zj9gJ7V7uKc1xHOvdc6udYI2xn0/1k5T0/BuNSCgO2og42oxQTlyLurqdSoyj3eRQbTe2cebzN7+lGnEsNHWOjl48ni1E51nrzUT3bV4tdrF60yLmuqHqm3N2Y7Dmk1JThg3Ru3BE9W4q0fR0pLFLnOeflltqdm2T9p3T7X/MVJNTSMoSUAialBJDKnIPN4JR/ToarvC/zzxb7VLGyxXmhm+g9k316gdP26s2jV5lydxBVvTbOfPDLHcaiFXr7bUbBo1ybWaRmTtuFLGFGZd0U6wPG3Xayy7WGb5a2qvPnaa2lpGUJKARNSAknBkVyVJR3Vq17t6vkD/jT33gSfULixa1FAcYcpR5wZ+FNyAkazLX+RduydfMptyGdRsyilJqylGLuPyHikbF+J2j4opU46Nrht4dNFim8krlqm96l0z1dYygpIEJKJmlCTttW6isilJs/NoiwDiVs0b1lq561UXM2RHqK3LmjJki6YE9QXz+HUtFtUUR1js0uaUpMFlXlPu+kWnJKWUbZddn0/J5WPKTlomlS1mOXmMxSin7WzXrWUEJQlIxKBXkrRr3XTEJK5elyymaHObG8xE/+fsxY++pHZFxlorja739rgpo9WOdynSkZY+ia6ev1ztapdxrcubMtSlTVHKaStH0T2udgVx5XGNnGj8eutF/vHbd1X7Fv23thGUJCARNVBJpIjdKSPNhBJhCCWDKmSPcuzpwoZMRjk2ZxyyPlIeGyuIcK94X+GYhgZlNj5YWIqVQxkVlTogJWZd/L/C4flmY2GDsqGcV1KC12LhEb4S7yusZcgdBQRsEjUQk1A818rQf2UsqsUK9L6+6uwdL9oo1TnLLTZIpa0VMrHFPj/l7burneBaRavMRNc+afu/ksqp3ZixVlDGXSf/prVupk0ap/Y/bXhJNHvRi2oXbrDrNKSGqT3UjWQ7dhc1kWVrosg+7bB21JZDpedcjRoEJQlIRA0oiR1ZaDNPbkpb3mGJy2PMXWTjQBasNqV4c4h58ptDrZVicUIUHZSx2zxxf+vNXeo6fWY/bn09K4dba2Sla83kc10DiYZWU5gdW027zjvEmkUL1tr2/z5rfUNtddbrnGuxPExjq5Vr6m7Wypo+2uysoaYhY9vdlOvZ9TcXQUkCBgQ1oyRRyRRhg1OSCx9cqva5jA3YWLXR8hi5UZZhbTbHj3Kr31D7samT1b7Fvo5uXWaZlSeW28iSlpwpQGvKPLmcNSXIugk7qWbz/N0zlq85cQ8rx84jLfN72cMWm2xwvc65rJW7tckywNm8KeFurSZhlxx5kFoXssTwm0BWju7PjU/65t9BSQK2KmqnkkjGNKboiXDlxo3KtbEQCtviVoywqbWgLBbKyiH1Dcp87MFC8XthUyml3FDKKQux5wpTsZIIs6WsMhVfVigZV+G65nXKlg0tSokwhJlMTtnU2qZc2bRO2ZIqKOuHNyjzsWII18TCJ5TB9zoAvxRvKGOlill0/8VXVZZjBREOBIKSBCSiBiqJFDFmNm6txJRQQ7hXY045sdRsrEspR8XOJhwZq4qwLpVWFuLPhBJZCIcVMsrxuUZlY6wqwmxrUVluMraua1IWo7XKtpRxxKiRypeaI2W5nFLW5+qUDXHsJNxlWKNy9IYVyiN2G6OsL7QpZeKhTj4khSyqIsrlNERmGjLbcKBQA5UkYKBRA62brmDWv/XxdmRMn7E0RfTIUmutvFC21kKh1cao7u3WDTjz7fupfV7/jaIb7l6stjjCeoebXO9u0U0eTqetVdU4xFo1I93ItNOmWeb2wYXWenlgjZ2/2GCtnvFZe6zHTLFc63SX4bV8bfy9s+2jTSQesf+xf92N0+ZhnlGq/Yn4T2bT6NveXVHNsQHbCWonT+LGorblLc/QkrORX80un2DZiii617pgouuW2jyYNc4Pxm40nzx830lqD3SdKS+4CTv3LnhB7eq87V92c4TrnSJNcHmT4w42BXnZOf6f5ixS2zbGemOGly0fcsbe1rlzuMvLcBeUc5h76u1K0v5ncNrh3Lfjufn+3Df/7tveXVHNsQHbCWpISfjNtsxnyXls0c3qz7v6bj05UXTuvCVqVw8drraxzc4z0vUBHXmA9dUcOMbOx3GLXGzjErjRMBdLzLSQJVpmoUd027/siDdztsP6tCnNiLgFI/jvY2aoHe+KX+/OU+eedvtyKklPn/2c3fznuPkIShKQiNpp3XAC90HejXltc7/yjHGd84q1Pq5ZYH0p+Z1sNYBym7V6yq22Z6MbPT92uPUaT9/P2h2us1izrAKezhI7XbRslR2/Yr31/m7MWcFSO7jYaK2NlT1rylS1h46wAu/hlCBT7BpztP9PpZWa+NjtFpQkYFBi0CsJoDZznoKLUZpdjGI6EUVXPWhz+R7baK2fkltVoGmdjV3LZexM6aybK+zmyQxNmzLVudYMvb/FkilOU8pim8jN7Mu6fEmby6MsL1mrawe3Pc2Nzj/3kH3VWpsqPn/Bvo9cPqb9zoKSBNQyakZJOAM9oZxvnVOSeautWfKnf1neYnm9xSLNJRtYMrrOXLLUZq2QgnPRvBsI1ixD5GOU3Qy9rHPltHs6mZLFPplWU4JhBWvm5HO2Q8tYu16mzT6fvM4SNmccNl3tvm58y3C3JlOGVRtLVv5uSuIjKEnAYEYNKAlHmu0orNXvJmdtDn8U3fmsZVofWuA+ceuMTJ1kGdAp+1vCo8XlQeY+afstabUzN+VMMZg5OKRgscru9fb5u2bYUkcT9N8oWrzclGP2wmfVltps/1MPOVDtjOGmFCNdyYe6VlnOlTuFkrQHHx742NmgJAGDEv2mJNWi1M2HrH67rEP7t/QSP7LgebWNI63zZM8JpiDs7wbLRy+7Ay+fvVDtqpy1YlJuzbS6laZMFxxnY1KnukaOtY06rmv60HH9nZ3l+3r3fxln6dVtX1G6EhJClf5AUJKARNSQknRFUu3OuzdV5XLWrGB0V95ZGe8lWOnWXvvx/c+pXbzBtIa16HdNWV/PpcdbBtWyLrFyuNiDx1dfb7FPqeSUIu2X0L8DgKKYaccgUBAQlCQgETWjJEnwb4O3VhTdGmlF3irh3n1Hm8LGz0fRzQtsbflHl5ptcytBH7S7tWY+duDeaodUVIquqKwotYegJAGJ2GaUxEdrq2U2iRU6YB5ecu2RjW5tZxup2tE6MX3paMXYvLwOBeKxoVi+clS+fu0hKElAIrZZJUmGtX54ywXrnZBHwXtcl0u77VgvpWvzw1eWbQlBSQISse0rSTfH5wM/b+FiC+c3/ij97tj2FKMSgpIEJGIbVpKelaIi3NrzFTOf249wdENQkoBEbIeVRCShJzp4mwFBSQJ6ge2wdRPQVwQlCUjEtl9JQoxRNYKSBCQiVJKARIRKEpCIPlcSaQxt6w2i7Qm9+XsGJQlIRNV5kjVrbA7uV77yFbVXX3212kzGxme84x3vUPvHP/5R7ciRXV/ez+Wx/phQPmf0e10dY8YMfO+Pac1k3SRfB/Yr8bI8B38/Rphxvd6OLGtx79MZMsStZuDOQ7n8cSYbN9oo/JdesnUkv/nNb6r9+c9/rnb0aJsnRLkB5/HvG1T6nOdy8y03q507d67an/3sZ2o3dZ9BSQISsdmVRMZwCr/73e8qJ0yYoGxqalKKZwm///3vKz/60Y8qX3/9dSWQmi8UBRGKB+PFAr4XBRGKBwrFM4R8D4ql+POYPtgvlU4pRUE6qwjnEw8UynwdIffpX9cH5Qdscz4flIfrsO2D4ymHX04fnEeUTOg/T8DzlPlDzCGqhKAkAYnY7Jjk4YcfVnvRRRepvflm+60jZmhosFHonP6yyy5Ty2/thz70IbVFt4bYN77xDbX8JvObfu+996qdNWuW2vvuu0/tr3/9a7Uc/4c//EHtvvvaykLEQAcccIDa73znO2rxqj//+c9q//1ve3PWWWedpfaKK65QO3Sozewjdvj85z+v9je/+Y1acPfdd6s94ogj1OKVy5bZagXve9/71D799NNqP/KRj6glBjnnnHPUzpkzR+3BBx+s9qabblLb2Ghv2jr//PPVVrr+kUceqRY88sgjag899FC106ZNU3vCCSeoXbXK1tL277cnBCUJSESvlQQPQSkuueQStRx+wQUXqGU/fi/5njm5gM+pyc8+a+t7XHrppWrnz5+v9lOf+pRaPB8PpdWE0rz1rW9V+8UvflHtLrvYO6m+/vWvq8VzH3vsMbW///3v1b76qq2lhpJcfPHFavHMb33rW2q5nwsvvFAtSkr5brnlFrVjx9pS05/5zGfUomC7724rSfPcJk60mYFve9vb1P7kJz9Ri+KOGWPvCvzBD36gFgXkfh566CG1XP+GG25QO3y4LXtwyimnqKX1gsJ+4QtfUMv9/OIXv1Dr/306IyhJQCKYkJYIP5ImFsBDyBMQi7A/HoDNZu2Szc021/aFF2xN99NPP10tv8FTp9os/qOPPlrtvHnz1O7k1mU9/vjj1RJz4EGHH3642pdftnVFwLBhtl7rYYcdpnaHHdy78pwHEQuMGGHrmaxbZ+u0Pv7442q//OUvqyVWOuSQQ9Qec8wxatevt0XquS/KyfNBgVECsHChrYvC9cDatbae5D333KOWmI3nPGXKFLXcD8dTjpkzZ6pFqXjun/zkJ9WSz0q3rwJZGUFJAhLR60oiNVEoiiCUmEIosYRQMo1CURAh7XTyALTLyR+QT3nuueeUnBdwnPw2CznvqFGjlJMnT1aKQqASmwJ5hvHjxyvF44WSaeycbSQfwveUS2IUobQChNyvtMaETz31VBe25zVixUV1BTwX8hOSmRZSDr73n4coqlCUTshzuPLKK5VLly5VPvHEE0pRIiHnK5fiv1dM8ld8ns7Efw+3tm0lBCUJSESvKwmeTM0/6qijlA8++KBSWgm0FHqCtCaE119/vRJPkNhAyHlBLhsrSczFixcr8TQ8kPKgSEnAc6TvSIgyomx8jwejZBJbCFFM9vMpMZUQhcPjUVzI9VDWQqGg5Hu2ud+dd95ZuWTJEqW/P/zwhz+slFaMkOe6YcMGJRlmrg9RvE0hKElAInrdupHaKpDaJ6BVMWmSrZr+29/+Vu1Xv/pVtewnKiMgH3LNNdeoFS8RcB4yjAcdZKsc/vOf/1RLpvJLX/qSWloPROucR7yrJ4jaCDqrlIBWGF7U+fdfsOMOtjra3nvbCkdkcMnDPP/882rf//73q7388svV7rabrRcrcYngtddeU7vHHnuoZT/ilPe+971qRY0E3Bettf32s3cGkoch87pgga2hL+oh4PnSKvzhD3+o9plnnlFLK+d3v/udWv4+vUFQkoBE9FlJ8EzyCVddeZXas885Wy2eTeaVTCgZU+kp7gz6Ls477zy15C9QBjKq+++/v9oHHnhALXkEPA9PxEPIJwC2fcXBozmO+yPiJ5NM3w33x/OgD0nis84gr7HPPvuopZwf//jH1ZLppEecuOqMM85Qi7J+4hOfUPu1r31NrcRJAs73q1/9Si19R/Q1oTjHHXecWo770Y9+pJZxLNzvphCUJCARW2wGH57s/7aTaexNje0MzoMHAH8sB2NCfCUBfC45AgEK0dfy+EAp8Wiu6ysu2yiYfz+bCxQDZeN6/nOotO2Xb1PPo+sTDQjoAVtMSSqhkof3FdLWF9C3A3zFwcNQMOBfn1aS79koQ7VKU+m+edwoEUoAeuPZmwLH02rzlQagyKWyK6frw+kp+1rdXy5gu0DVSpJU8yt9jwL4HodnU9M7j0PtDBTDHwHHdZJ+i7H+ddgPcLy/n3/9SkqHYvjKVgmVFMj/vNJ5Kx0P/Fiq0t+tM3o+U0BAJ2z1mITTYyvVcJSF38a8e+slnooHUPO3VCsB+OX0W0NJ83V6C87fGw8eLAhKEpCIra4kPqr1JKL2bMZ+UzfXowG/4WRe/T6eSspHBtdvnVTan+tw30FJArYp9JuSMA+EPgZ6ixmN7uc7GLP5gQ98QC2eyKjwHXe0Xtot7ZF+foHR7fTiMgq9Eoid6Othf0b3g6AkAdsU+q2SiIcK3/3udytlNLtwxYoVSn9kGmM1RUGEjCllzKgoD+rTG4hgbko0K30vHi8UhUAlBOxP+QD7Sy+vkBF8/YVK91ENgpIEJKLfYpLZs2erZYQX65ScfPLJapnHQuvg29/+tlpiD2IaZqTJ+FjB7bffrpbffn7rGcfBHOV99rZtWkPXXXed2rPPtnEwPIbrr7te7cn/ZeWSFREEXO/vf/+72jvuuEMt4zaYIch5iEmY+0uswzgSUUUBMwmZR3PbbbepJQbieRAbyQoOAlpXjAhkhJqfyfZbX5uDoCQBibBkQz+APg08bc8991SLwjD7ffVqexveypUr1b7nPe9Re//996sln/Hkk0+qZQ7tK6/YWzhZtYA5xSgXI8W43qOPPqqWPhhWbDr33HPVHnW0xRH0jfztb39TizK98cYbavFgZuszex8PJs5CERih949//EMtqyh89rOfVXvttdeq/d73vqf2phtthJrMqREwF5qxs6eeeqravfbaSy0zEbdkRjooSUAi+q2SiCcJif5l9LbwxRdfVNLaYX6LjDoXMn9ERnZ1Hp8qHiuUGEEoo8uFnF+USihKIJReXKGsKiCcMWOGUpRNKEonlNHkQubb0JqSPIeQ8jC/hfOwH60wiRmEolBC6YMSyphTocQcQuYByah5IeXl+Pvuv0/5zne+U8n+PJ+TTjpJybwcnjOtv762AntCUJKARPRbJZHffqGMYxDKbHvhuHHjlJJhFcpvtXDihIlKlIE5v+RT8NAzzzxTiadCWWFIiFIUirESxVy+fLmS/fA8lABwXfIgu+66q5JtyotySAwgpHycj5mKHCfzjIQoH5+TR+J8lI9ySOZZyDbPQ1pVQplfI0SBKA+sBkFJAhLRb5UED8Bz+W2V+TRCWftLKGuYCafPmK7Ew/yM51//+lclHomyoFjXuznHKIm0NoTEGv4cYmIB5s4CPud4FIIYhm0UEqIQeLKvgIDZ/tKrLaT83C8xBQpbyMeKGDPfFn8ek/1Z5RIl4r63BIKSBCSi3yoJHglQFmbhyww+IZ6HxwM8k1YOisQ264awLseNN96oxCMhsZDMNRYSW3CcrKAklDXRhHgq16F8eDjHc34+Zz9iBI7H0xuHxUoUUzLAQmImngvKJSsZCSU/Q45GsHrNaiWxl6w+KaQVx3nYrgZBSQIS0W+VBCXgtxIPI58hGcvOZH0PwG8xUT15BVlzTUhsgmfJnFohvczENrJ+rFBWQxASG9HK+tznPqeUDLAQj/Z/41EO8iacH6KcxDgoCedpbYv3iwm4DoqIAkjfj5AVt7O5OHaJKas8ClmBiftCmTie7WoQlCQgEf3WC8yMOWn7CySeEPiXFy8UEL+wH5DfewHHYeX3V8BxfE4Lhr4jH1xP4geBXy7O64Pf+Upzi/1yUi5RU4F/X4DjKA/bgPNl0qYOqIT/3ChP0n30Bj2XNCCgE/pNSfzLbG7N3hKeUYuo9s8UlCRgqyJUkoBEhEoSkIhQSQISESpJQCJCJfEgrYh+avDVDEIlCUhEv68qsLkgw9my0eab8N4Y3pDFPBc/k8lxrA3mZzLZBuxPJpP9pN9FID24Ah5bX/MP0t8jkDEnAlZ25g1brOws/UgCzl/tnynkSQK2KmqmktCbKStCC8XDhYy2p7cX0OssfStCUQwhn7Ptg+twfn8ciHi0UFY+6rz6EeNOAPsBtqVvRSiK15mUi7GtXFeUDXUbKAQlCUhEzcQkgLdtMlOfubn8hrN2uw/ezsBbNplBKCscCIgRWMOd3lTepsl6KoA5uLw7kN5m5gQzd5j1V2Ssi4BY6oMf/KBaGekvYGYh7xaU8bkC3upZ7Z8pxCQBWxU1oyTMgWWOLKsO8JYH5tjy1k0Z5SWQ9/sJUBjm3uLpn/70p9VOnz5dLcf/5S9/UctbMVhdgDnHJ554olrm7rIqAG+1kPhC8NOf/lQtbwXl/cOMV0VhuB/mMFN+WlPVIihJwFbFoKkkjHkVYetJ3GjF8DZOebOVUGbTC3n7JnOKAaPimYMrb8ISMmaUsaFcn1bGnXfeqZQ3eQkZe8rxMptfuGjRIiWtJcj1GLvKWF55s5WQVg1jZbk+n9fXxcfFBKIE1bAaBCUJSMSgqSR4HPkBH+RHpLUgZNQ4Hi4rAQnlt5/ff8H8+fOVjFqXFaeF5EEgc3bxbMrDWzp9z2QOLgrHDD2uw/uMqwXXG0gEJQlIxKCpJPwW45GAdTfmzp2rxHPxeGIY1jW56667lNIaEhILECuk0rFnxmQboABkPJnje8899yi5DvNqiF1QNrY5DoVj/1pGUJKARAyaSoKnoij0Wciqi0JW9mFmH7EFYCYdCoICzZo1S8kKR7yxnDm88p5iIcpC3worG8lqiEJiF45jBiFzcFEMZhiiKNWC5zKQCEoSkIhBm3GVeEPAOBGZ7ypg3dfO8URnMC6DXAkZz1tvvVUtqxWKCggklyEQdRCwSiOo1HdD5pc3n1Me1oU97bTT1B526GFq2/J2P/T1cLyon4D1XgFr6PP9QCIoSUAiBlxJpEXQGRKPCPicHEFfcwWMwZCWjFrvPOvXr1dLX83MmTPVnn6aeToj03zwuKrNXVR7f/2JoCQBiRh0MUmSp6IQvqdX+nzevHlqiT2khdIZjP9g3AffM76EbX8WfyX45WcbSzaZ8SqVgNKgrAOJoCQBiai5kWnVwr9dX7EqKRLg+N7GEOyP7W3MResuSXH6A0FJAhKx3SlJEgZTLDBYEJ5EQCJCJfEgsUFv443tBaGSBCQiVRwkMclA11aLRCqj2vIlnT8JA3n9oCQBieiFklTrAz56rpeVa+uWFrqe443Kd2nfpCsc11uU2u+jr3458NcPShKQiFRZXraySVTyMf/z3ta3SvtV8pT+un6lx8B1/PL19frVKUkUbbrPaGuiryUO2A4RMq4BiQhKEpCIoCRVotLDq64tMrgQlCQgAVH0/5Xx5rbU6Iz+AAAAAElFTkSuQmCC;" vertex="1" parent="1">
          <mxGeometry x="-141.57" y="-957.75" width="32.43" height="40" as="geometry" />
        </mxCell>
        <mxCell id="WXrp-uN07uE1j_KBOkGB-63" value="" style="html=1;labelBackgroundColor=#ffffff;startArrow=classic;startFill=1;startSize=6;endArrow=classic;endFill=1;endSize=6;jettySize=auto;orthogonalLoop=1;strokeWidth=1;dashed=1;fontSize=14;rounded=0;" edge="1" parent="1">
          <mxGeometry width="60" height="60" relative="1" as="geometry">
            <mxPoint x="-460" y="-953" as="sourcePoint" />
            <mxPoint x="-310" y="-953" as="targetPoint" />
          </mxGeometry>
        </mxCell>
        <mxCell id="WXrp-uN07uE1j_KBOkGB-64" value="" style="rounded=0;whiteSpace=wrap;html=1;" vertex="1" parent="1">
          <mxGeometry x="-807" y="-648" width="230" height="460" as="geometry" />
        </mxCell>
        <mxCell id="WXrp-uN07uE1j_KBOkGB-65" value="" style="sketch=0;pointerEvents=1;shadow=0;dashed=0;html=1;strokeColor=none;fillColor=#505050;labelPosition=center;verticalLabelPosition=bottom;verticalAlign=top;outlineConnect=0;align=center;shape=mxgraph.office.servers.windows_server;" vertex="1" parent="1">
          <mxGeometry x="-724.7199999999999" y="-1005.25" width="52" height="55" as="geometry" />
        </mxCell>
        <mxCell id="WXrp-uN07uE1j_KBOkGB-66" value="" style="sketch=0;pointerEvents=1;shadow=0;dashed=0;html=1;strokeColor=none;fillColor=#505050;labelPosition=center;verticalLabelPosition=bottom;verticalAlign=top;outlineConnect=0;align=center;shape=mxgraph.office.servers.windows_server;" vertex="1" parent="1">
          <mxGeometry x="-553.43" y="-1005.25" width="52" height="55" as="geometry" />
        </mxCell>
        <mxCell id="WXrp-uN07uE1j_KBOkGB-67" value="" style="shape=image;verticalLabelPosition=bottom;labelBackgroundColor=default;verticalAlign=top;aspect=fixed;imageAspect=0;image=data:image/png,iVBORw0KGgoAAAANSUhEUgAAAIkAAACpCAYAAAAfiB7/AAAAAXNSR0IArs4c6QAAAARnQU1BAACxjwv8YQUAAAAJcEhZcwAADsMAAA7DAcdvqGQAABx7SURBVHhe7Z0HmF1VtcfPbTOTZFIgCQkJBEITCImSEAgISBNF+T7e433YEFQQsH2oqIhiwwoighWeiAiKFJ+IPBE+gjGEDsqDIKSQUENLIXVmMnPbO2ut/ZuyZ27OTG4yMzfZf75/FufeU/Y5s9f/rr12OalyjKgfUHK2t6hUqJSzIO1sIpLu0v/ev5C33df78dHrcg8C1Gwl6faQk/7ISSdMegr++Rwq3ZdfPn+/WqoktVTWgAFC7StJ+47eFbopiecP/gXc14WiWZDNuP/h9N5xZXedknf6jFec1nxebTqbVZvLVJCmQYigJAGJGLRKkoRuSuIrSrujuj3Z9vYvONvK997unK7B2W5e5XYsOcVp/9674WLJLpTJtp+5ZtDtngMCfAx6Jel1LfbvwtsmZugIOaxERXeFZv03ilqcBUOcbXS2zr+RSk+PgteecHRDUJKARAxaJelt7aX4qZTnst5dFd3XKEkpKqhtiqy1cd8bG9Uuev1NtaW0bU8Zt6Pao3YapXaEiy2ilB3f3moq0wxyCEoSsD1hEMckPR/h12qKXyi2qY3S5rq5dIPaQrt22JFZ59obSqYUq9x+lz/5itrniqYIxbQdt1fGFOOiqbupHVV0j8spTZSy49slwxW72GLfZ4bxfe0iKElAImpISbpup139Ljnbqv9G0dqy7ZdP2edECn5owOfPOPvL+a+rXZZxCpSxWGXXvLV7zj9gJ7V7uKc1xHOvdc6udYI2xn0/1k5T0/BuNSCgO2og42oxQTlyLurqdSoyj3eRQbTe2cebzN7+lGnEsNHWOjl48ni1E51nrzUT3bV4tdrF60yLmuqHqm3N2Y7Dmk1JThg3Ru3BE9W4q0fR0pLFLnOeflltqdm2T9p3T7X/MVJNTSMoSUAialBJDKnIPN4JR/ToarvC/zzxb7VLGyxXmhm+g9k316gdP26s2jV5lydxBVvTbOfPDLHcaiFXr7bUbBo1ybWaRmTtuFLGFGZd0U6wPG3Xayy7WGb5a2qvPnaa2lpGUJKARNSAknBkVyVJR3Vq17t6vkD/jT33gSfULixa1FAcYcpR5wZ+FNyAkazLX+RduydfMptyGdRsyilJqylGLuPyHikbF+J2j4opU46Nrht4dNFim8krlqm96l0z1dYygpIEJKJmlCTttW6isilJs/NoiwDiVs0b1lq561UXM2RHqK3LmjJki6YE9QXz+HUtFtUUR1js0uaUpMFlXlPu+kWnJKWUbZddn0/J5WPKTlomlS1mOXmMxSin7WzXrWUEJQlIxKBXkrRr3XTEJK5elyymaHObG8xE/+fsxY++pHZFxlorja739rgpo9WOdynSkZY+ia6ev1ztapdxrcubMtSlTVHKaStH0T2udgVx5XGNnGj8eutF/vHbd1X7Fv23thGUJCARNVBJpIjdKSPNhBJhCCWDKmSPcuzpwoZMRjk2ZxyyPlIeGyuIcK94X+GYhgZlNj5YWIqVQxkVlTogJWZd/L/C4flmY2GDsqGcV1KC12LhEb4S7yusZcgdBQRsEjUQk1A818rQf2UsqsUK9L6+6uwdL9oo1TnLLTZIpa0VMrHFPj/l7burneBaRavMRNc+afu/ksqp3ZixVlDGXSf/prVupk0ap/Y/bXhJNHvRi2oXbrDrNKSGqT3UjWQ7dhc1kWVrosg+7bB21JZDpedcjRoEJQlIRA0oiR1ZaDNPbkpb3mGJy2PMXWTjQBasNqV4c4h58ptDrZVicUIUHZSx2zxxf+vNXeo6fWY/bn09K4dba2Sla83kc10DiYZWU5gdW027zjvEmkUL1tr2/z5rfUNtddbrnGuxPExjq5Vr6m7Wypo+2uysoaYhY9vdlOvZ9TcXQUkCBgQ1oyRRyRRhg1OSCx9cqva5jA3YWLXR8hi5UZZhbTbHj3Kr31D7samT1b7Fvo5uXWaZlSeW28iSlpwpQGvKPLmcNSXIugk7qWbz/N0zlq85cQ8rx84jLfN72cMWm2xwvc65rJW7tckywNm8KeFurSZhlxx5kFoXssTwm0BWju7PjU/65t9BSQK2KmqnkkjGNKboiXDlxo3KtbEQCtviVoywqbWgLBbKyiH1Dcp87MFC8XthUyml3FDKKQux5wpTsZIIs6WsMhVfVigZV+G65nXKlg0tSokwhJlMTtnU2qZc2bRO2ZIqKOuHNyjzsWII18TCJ5TB9zoAvxRvKGOlill0/8VXVZZjBREOBIKSBCSiBiqJFDFmNm6txJRQQ7hXY045sdRsrEspR8XOJhwZq4qwLpVWFuLPhBJZCIcVMsrxuUZlY6wqwmxrUVluMraua1IWo7XKtpRxxKiRypeaI2W5nFLW5+qUDXHsJNxlWKNy9IYVyiN2G6OsL7QpZeKhTj4khSyqIsrlNERmGjLbcKBQA5UkYKBRA62brmDWv/XxdmRMn7E0RfTIUmutvFC21kKh1cao7u3WDTjz7fupfV7/jaIb7l6stjjCeoebXO9u0U0eTqetVdU4xFo1I93ItNOmWeb2wYXWenlgjZ2/2GCtnvFZe6zHTLFc63SX4bV8bfy9s+2jTSQesf+xf92N0+ZhnlGq/Yn4T2bT6NveXVHNsQHbCWonT+LGorblLc/QkrORX80un2DZiii617pgouuW2jyYNc4Pxm40nzx830lqD3SdKS+4CTv3LnhB7eq87V92c4TrnSJNcHmT4w42BXnZOf6f5ixS2zbGemOGly0fcsbe1rlzuMvLcBeUc5h76u1K0v5ncNrh3Lfjufn+3Df/7tveXVHNsQHbCWpISfjNtsxnyXls0c3qz7v6bj05UXTuvCVqVw8drraxzc4z0vUBHXmA9dUcOMbOx3GLXGzjErjRMBdLzLSQJVpmoUd027/siDdztsP6tCnNiLgFI/jvY2aoHe+KX+/OU+eedvtyKklPn/2c3fznuPkIShKQiNpp3XAC90HejXltc7/yjHGd84q1Pq5ZYH0p+Z1sNYBym7V6yq22Z6MbPT92uPUaT9/P2h2us1izrAKezhI7XbRslR2/Yr31/m7MWcFSO7jYaK2NlT1rylS1h46wAu/hlCBT7BpztP9PpZWa+NjtFpQkYFBi0CsJoDZznoKLUZpdjGI6EUVXPWhz+R7baK2fkltVoGmdjV3LZexM6aybK+zmyQxNmzLVudYMvb/FkilOU8pim8jN7Mu6fEmby6MsL1mrawe3Pc2Nzj/3kH3VWpsqPn/Bvo9cPqb9zoKSBNQyakZJOAM9oZxvnVOSeautWfKnf1neYnm9xSLNJRtYMrrOXLLUZq2QgnPRvBsI1ixD5GOU3Qy9rHPltHs6mZLFPplWU4JhBWvm5HO2Q8tYu16mzT6fvM4SNmccNl3tvm58y3C3JlOGVRtLVv5uSuIjKEnAYEYNKAlHmu0orNXvJmdtDn8U3fmsZVofWuA+ceuMTJ1kGdAp+1vCo8XlQeY+afstabUzN+VMMZg5OKRgscru9fb5u2bYUkcT9N8oWrzclGP2wmfVltps/1MPOVDtjOGmFCNdyYe6VlnOlTuFkrQHHx742NmgJAGDEv2mJNWi1M2HrH67rEP7t/QSP7LgebWNI63zZM8JpiDs7wbLRy+7Ay+fvVDtqpy1YlJuzbS6laZMFxxnY1KnukaOtY06rmv60HH9nZ3l+3r3fxln6dVtX1G6EhJClf5AUJKARNSQknRFUu3OuzdV5XLWrGB0V95ZGe8lWOnWXvvx/c+pXbzBtIa16HdNWV/PpcdbBtWyLrFyuNiDx1dfb7FPqeSUIu2X0L8DgKKYaccgUBAQlCQgETWjJEnwb4O3VhTdGmlF3irh3n1Hm8LGz0fRzQtsbflHl5ptcytBH7S7tWY+duDeaodUVIquqKwotYegJAGJ2GaUxEdrq2U2iRU6YB5ecu2RjW5tZxup2tE6MX3paMXYvLwOBeKxoVi+clS+fu0hKElAIrZZJUmGtX54ywXrnZBHwXtcl0u77VgvpWvzw1eWbQlBSQISse0rSTfH5wM/b+FiC+c3/ij97tj2FKMSgpIEJGIbVpKelaIi3NrzFTOf249wdENQkoBEbIeVRCShJzp4mwFBSQJ6ge2wdRPQVwQlCUjEtl9JQoxRNYKSBCQiVJKARIRKEpCIPlcSaQxt6w2i7Qm9+XsGJQlIRNV5kjVrbA7uV77yFbVXX3212kzGxme84x3vUPvHP/5R7ciRXV/ez+Wx/phQPmf0e10dY8YMfO+Pac1k3SRfB/Yr8bI8B38/Rphxvd6OLGtx79MZMsStZuDOQ7n8cSYbN9oo/JdesnUkv/nNb6r9+c9/rnb0aJsnRLkB5/HvG1T6nOdy8y03q507d67an/3sZ2o3dZ9BSQISsdmVRMZwCr/73e8qJ0yYoGxqalKKZwm///3vKz/60Y8qX3/9dSWQmi8UBRGKB+PFAr4XBRGKBwrFM4R8D4ql+POYPtgvlU4pRUE6qwjnEw8UynwdIffpX9cH5Qdscz4flIfrsO2D4ymHX04fnEeUTOg/T8DzlPlDzCGqhKAkAYnY7Jjk4YcfVnvRRRepvflm+60jZmhosFHonP6yyy5Ty2/thz70IbVFt4bYN77xDbX8JvObfu+996qdNWuW2vvuu0/tr3/9a7Uc/4c//EHtvvvaykLEQAcccIDa73znO2rxqj//+c9q//1ve3PWWWedpfaKK65QO3Sozewjdvj85z+v9je/+Y1acPfdd6s94ogj1OKVy5bZagXve9/71D799NNqP/KRj6glBjnnnHPUzpkzR+3BBx+s9qabblLb2Ghv2jr//PPVVrr+kUceqRY88sgjag899FC106ZNU3vCCSeoXbXK1tL277cnBCUJSESvlQQPQSkuueQStRx+wQUXqGU/fi/5njm5gM+pyc8+a+t7XHrppWrnz5+v9lOf+pRaPB8PpdWE0rz1rW9V+8UvflHtLrvYO6m+/vWvq8VzH3vsMbW///3v1b76qq2lhpJcfPHFavHMb33rW2q5nwsvvFAtSkr5brnlFrVjx9pS05/5zGfUomC7724rSfPcJk60mYFve9vb1P7kJz9Ri+KOGWPvCvzBD36gFgXkfh566CG1XP+GG25QO3y4LXtwyimnqKX1gsJ+4QtfUMv9/OIXv1Dr/306IyhJQCKYkJYIP5ImFsBDyBMQi7A/HoDNZu2Szc021/aFF2xN99NPP10tv8FTp9os/qOPPlrtvHnz1O7k1mU9/vjj1RJz4EGHH3642pdftnVFwLBhtl7rYYcdpnaHHdy78pwHEQuMGGHrmaxbZ+u0Pv7442q//OUvqyVWOuSQQ9Qec8wxatevt0XquS/KyfNBgVECsHChrYvC9cDatbae5D333KOWmI3nPGXKFLXcD8dTjpkzZ6pFqXjun/zkJ9WSz0q3rwJZGUFJAhLR60oiNVEoiiCUmEIosYRQMo1CURAh7XTyALTLyR+QT3nuueeUnBdwnPw2CznvqFGjlJMnT1aKQqASmwJ5hvHjxyvF44WSaeycbSQfwveUS2IUobQChNyvtMaETz31VBe25zVixUV1BTwX8hOSmRZSDr73n4coqlCUTshzuPLKK5VLly5VPvHEE0pRIiHnK5fiv1dM8ld8ns7Efw+3tm0lBCUJSESvKwmeTM0/6qijlA8++KBSWgm0FHqCtCaE119/vRJPkNhAyHlBLhsrSczFixcr8TQ8kPKgSEnAc6TvSIgyomx8jwejZBJbCFFM9vMpMZUQhcPjUVzI9VDWQqGg5Hu2ud+dd95ZuWTJEqW/P/zwhz+slFaMkOe6YcMGJRlmrg9RvE0hKElAInrdupHaKpDaJ6BVMWmSrZr+29/+Vu1Xv/pVtewnKiMgH3LNNdeoFS8RcB4yjAcdZKsc/vOf/1RLpvJLX/qSWloPROucR7yrJ4jaCDqrlIBWGF7U+fdfsOMOtjra3nvbCkdkcMnDPP/882rf//73q7388svV7rabrRcrcYngtddeU7vHHnuoZT/ilPe+971qRY0E3Bettf32s3cGkoch87pgga2hL+oh4PnSKvzhD3+o9plnnlFLK+d3v/udWv4+vUFQkoBE9FlJ8EzyCVddeZXas885Wy2eTeaVTCgZU+kp7gz6Ls477zy15C9QBjKq+++/v9oHHnhALXkEPA9PxEPIJwC2fcXBozmO+yPiJ5NM3w33x/OgD0nis84gr7HPPvuopZwf//jH1ZLppEecuOqMM85Qi7J+4hOfUPu1r31NrcRJAs73q1/9Si19R/Q1oTjHHXecWo770Y9+pJZxLNzvphCUJCARW2wGH57s/7aTaexNje0MzoMHAH8sB2NCfCUBfC45AgEK0dfy+EAp8Wiu6ysu2yiYfz+bCxQDZeN6/nOotO2Xb1PPo+sTDQjoAVtMSSqhkof3FdLWF9C3A3zFwcNQMOBfn1aS79koQ7VKU+m+edwoEUoAeuPZmwLH02rzlQagyKWyK6frw+kp+1rdXy5gu0DVSpJU8yt9jwL4HodnU9M7j0PtDBTDHwHHdZJ+i7H+ddgPcLy/n3/9SkqHYvjKVgmVFMj/vNJ5Kx0P/Fiq0t+tM3o+U0BAJ2z1mITTYyvVcJSF38a8e+slnooHUPO3VCsB+OX0W0NJ83V6C87fGw8eLAhKEpCIra4kPqr1JKL2bMZ+UzfXowG/4WRe/T6eSspHBtdvnVTan+tw30FJArYp9JuSMA+EPgZ6ixmN7uc7GLP5gQ98QC2eyKjwHXe0Xtot7ZF+foHR7fTiMgq9Eoid6Othf0b3g6AkAdsU+q2SiIcK3/3udytlNLtwxYoVSn9kGmM1RUGEjCllzKgoD+rTG4hgbko0K30vHi8UhUAlBOxP+QD7Sy+vkBF8/YVK91ENgpIEJKLfYpLZs2erZYQX65ScfPLJapnHQuvg29/+tlpiD2IaZqTJ+FjB7bffrpbffn7rGcfBHOV99rZtWkPXXXed2rPPtnEwPIbrr7te7cn/ZeWSFREEXO/vf/+72jvuuEMt4zaYIch5iEmY+0uswzgSUUUBMwmZR3PbbbepJQbieRAbyQoOAlpXjAhkhJqfyfZbX5uDoCQBibBkQz+APg08bc8991SLwjD7ffVqexveypUr1b7nPe9Re//996sln/Hkk0+qZQ7tK6/YWzhZtYA5xSgXI8W43qOPPqqWPhhWbDr33HPVHnW0xRH0jfztb39TizK98cYbavFgZuszex8PJs5CERih949//EMtqyh89rOfVXvttdeq/d73vqf2phtthJrMqREwF5qxs6eeeqravfbaSy0zEbdkRjooSUAi+q2SiCcJif5l9LbwxRdfVNLaYX6LjDoXMn9ERnZ1Hp8qHiuUGEEoo8uFnF+USihKIJReXKGsKiCcMWOGUpRNKEonlNHkQubb0JqSPIeQ8jC/hfOwH60wiRmEolBC6YMSyphTocQcQuYByah5IeXl+Pvuv0/5zne+U8n+PJ+TTjpJybwcnjOtv762AntCUJKARPRbJZHffqGMYxDKbHvhuHHjlJJhFcpvtXDihIlKlIE5v+RT8NAzzzxTiadCWWFIiFIUirESxVy+fLmS/fA8lABwXfIgu+66q5JtyotySAwgpHycj5mKHCfzjIQoH5+TR+J8lI9ySOZZyDbPQ1pVQplfI0SBKA+sBkFJAhLRb5UED8Bz+W2V+TRCWftLKGuYCafPmK7Ew/yM51//+lclHomyoFjXuznHKIm0NoTEGv4cYmIB5s4CPud4FIIYhm0UEqIQeLKvgIDZ/tKrLaT83C8xBQpbyMeKGDPfFn8ek/1Z5RIl4r63BIKSBCSi3yoJHglQFmbhyww+IZ6HxwM8k1YOisQ264awLseNN96oxCMhsZDMNRYSW3CcrKAklDXRhHgq16F8eDjHc34+Zz9iBI7H0xuHxUoUUzLAQmImngvKJSsZCSU/Q45GsHrNaiWxl6w+KaQVx3nYrgZBSQIS0W+VBCXgtxIPI58hGcvOZH0PwG8xUT15BVlzTUhsgmfJnFohvczENrJ+rFBWQxASG9HK+tznPqeUDLAQj/Z/41EO8iacH6KcxDgoCedpbYv3iwm4DoqIAkjfj5AVt7O5OHaJKas8ClmBiftCmTie7WoQlCQgEf3WC8yMOWn7CySeEPiXFy8UEL+wH5DfewHHYeX3V8BxfE4Lhr4jH1xP4geBXy7O64Pf+Upzi/1yUi5RU4F/X4DjKA/bgPNl0qYOqIT/3ChP0n30Bj2XNCCgE/pNSfzLbG7N3hKeUYuo9s8UlCRgqyJUkoBEhEoSkIhQSQISESpJQCJCJfEgrYh+avDVDEIlCUhEv68qsLkgw9my0eab8N4Y3pDFPBc/k8lxrA3mZzLZBuxPJpP9pN9FID24Ah5bX/MP0t8jkDEnAlZ25g1brOws/UgCzl/tnynkSQK2KmqmktCbKStCC8XDhYy2p7cX0OssfStCUQwhn7Ptg+twfn8ciHi0UFY+6rz6EeNOAPsBtqVvRSiK15mUi7GtXFeUDXUbKAQlCUhEzcQkgLdtMlOfubn8hrN2uw/ezsBbNplBKCscCIgRWMOd3lTepsl6KoA5uLw7kN5m5gQzd5j1V2Ssi4BY6oMf/KBaGekvYGYh7xaU8bkC3upZ7Z8pxCQBWxU1oyTMgWWOLKsO8JYH5tjy1k0Z5SWQ9/sJUBjm3uLpn/70p9VOnz5dLcf/5S9/UctbMVhdgDnHJ554olrm7rIqAG+1kPhC8NOf/lQtbwXl/cOMV0VhuB/mMFN+WlPVIihJwFbFoKkkjHkVYetJ3GjF8DZOebOVUGbTC3n7JnOKAaPimYMrb8ISMmaUsaFcn1bGnXfeqZQ3eQkZe8rxMptfuGjRIiWtJcj1GLvKWF55s5WQVg1jZbk+n9fXxcfFBKIE1bAaBCUJSMSgqSR4HPkBH+RHpLUgZNQ4Hi4rAQnlt5/ff8H8+fOVjFqXFaeF5EEgc3bxbMrDWzp9z2QOLgrHDD2uw/uMqwXXG0gEJQlIxKCpJPwW45GAdTfmzp2rxHPxeGIY1jW56667lNIaEhILECuk0rFnxmQboABkPJnje8899yi5DvNqiF1QNrY5DoVj/1pGUJKARAyaSoKnoij0Wciqi0JW9mFmH7EFYCYdCoICzZo1S8kKR7yxnDm88p5iIcpC3worG8lqiEJiF45jBiFzcFEMZhiiKNWC5zKQCEoSkIhBm3GVeEPAOBGZ7ypg3dfO8URnMC6DXAkZz1tvvVUtqxWKCggklyEQdRCwSiOo1HdD5pc3n1Me1oU97bTT1B526GFq2/J2P/T1cLyon4D1XgFr6PP9QCIoSUAiBlxJpEXQGRKPCPicHEFfcwWMwZCWjFrvPOvXr1dLX83MmTPVnn6aeToj03zwuKrNXVR7f/2JoCQBiRh0MUmSp6IQvqdX+nzevHlqiT2khdIZjP9g3AffM76EbX8WfyX45WcbSzaZ8SqVgNKgrAOJoCQBiai5kWnVwr9dX7EqKRLg+N7GEOyP7W3MResuSXH6A0FJAhKx3SlJEgZTLDBYEJ5EQCJCJfEgsUFv443tBaGSBCQiVRwkMclA11aLRCqj2vIlnT8JA3n9oCQBieiFklTrAz56rpeVa+uWFrqe443Kd2nfpCsc11uU2u+jr3458NcPShKQiFRZXraySVTyMf/z3ta3SvtV8pT+un6lx8B1/PL19frVKUkUbbrPaGuiryUO2A4RMq4BiQhKEpCIoCRVotLDq64tMrgQlCQgAVH0/5Xx5rbU6Iz+AAAAAElFTkSuQmCC;" vertex="1" parent="1">
          <mxGeometry x="-524.93" y="-980.25" width="33.44" height="41.25" as="geometry" />
        </mxCell>
        <mxCell id="WXrp-uN07uE1j_KBOkGB-68" value="" style="shape=image;verticalLabelPosition=bottom;labelBackgroundColor=default;verticalAlign=top;aspect=fixed;imageAspect=0;image=data:image/png,iVBORw0KGgoAAAANSUhEUgAAAIkAAACpCAYAAAAfiB7/AAAAAXNSR0IArs4c6QAAAARnQU1BAACxjwv8YQUAAAAJcEhZcwAADsMAAA7DAcdvqGQAABx7SURBVHhe7Z0HmF1VtcfPbTOTZFIgCQkJBEITCImSEAgISBNF+T7e433YEFQQsH2oqIhiwwoighWeiAiKFJ+IPBE+gjGEDsqDIKSQUENLIXVmMnPbO2ut/ZuyZ27OTG4yMzfZf75/FufeU/Y5s9f/rr12OalyjKgfUHK2t6hUqJSzIO1sIpLu0v/ev5C33df78dHrcg8C1Gwl6faQk/7ISSdMegr++Rwq3ZdfPn+/WqoktVTWgAFC7StJ+47eFbopiecP/gXc14WiWZDNuP/h9N5xZXedknf6jFec1nxebTqbVZvLVJCmQYigJAGJGLRKkoRuSuIrSrujuj3Z9vYvONvK997unK7B2W5e5XYsOcVp/9674WLJLpTJtp+5ZtDtngMCfAx6Jel1LfbvwtsmZugIOaxERXeFZv03ilqcBUOcbXS2zr+RSk+PgteecHRDUJKARAxaJelt7aX4qZTnst5dFd3XKEkpKqhtiqy1cd8bG9Uuev1NtaW0bU8Zt6Pao3YapXaEiy2ilB3f3moq0wxyCEoSsD1hEMckPR/h12qKXyi2qY3S5rq5dIPaQrt22JFZ59obSqYUq9x+lz/5itrniqYIxbQdt1fGFOOiqbupHVV0j8spTZSy49slwxW72GLfZ4bxfe0iKElAImpISbpup139Ljnbqv9G0dqy7ZdP2edECn5owOfPOPvL+a+rXZZxCpSxWGXXvLV7zj9gJ7V7uKc1xHOvdc6udYI2xn0/1k5T0/BuNSCgO2og42oxQTlyLurqdSoyj3eRQbTe2cebzN7+lGnEsNHWOjl48ni1E51nrzUT3bV4tdrF60yLmuqHqm3N2Y7Dmk1JThg3Ru3BE9W4q0fR0pLFLnOeflltqdm2T9p3T7X/MVJNTSMoSUAialBJDKnIPN4JR/ToarvC/zzxb7VLGyxXmhm+g9k316gdP26s2jV5lydxBVvTbOfPDLHcaiFXr7bUbBo1ybWaRmTtuFLGFGZd0U6wPG3Xayy7WGb5a2qvPnaa2lpGUJKARNSAknBkVyVJR3Vq17t6vkD/jT33gSfULixa1FAcYcpR5wZ+FNyAkazLX+RduydfMptyGdRsyilJqylGLuPyHikbF+J2j4opU46Nrht4dNFim8krlqm96l0z1dYygpIEJKJmlCTttW6isilJs/NoiwDiVs0b1lq561UXM2RHqK3LmjJki6YE9QXz+HUtFtUUR1js0uaUpMFlXlPu+kWnJKWUbZddn0/J5WPKTlomlS1mOXmMxSin7WzXrWUEJQlIxKBXkrRr3XTEJK5elyymaHObG8xE/+fsxY++pHZFxlorja739rgpo9WOdynSkZY+ia6ev1ztapdxrcubMtSlTVHKaStH0T2udgVx5XGNnGj8eutF/vHbd1X7Fv23thGUJCARNVBJpIjdKSPNhBJhCCWDKmSPcuzpwoZMRjk2ZxyyPlIeGyuIcK94X+GYhgZlNj5YWIqVQxkVlTogJWZd/L/C4flmY2GDsqGcV1KC12LhEb4S7yusZcgdBQRsEjUQk1A818rQf2UsqsUK9L6+6uwdL9oo1TnLLTZIpa0VMrHFPj/l7burneBaRavMRNc+afu/ksqp3ZixVlDGXSf/prVupk0ap/Y/bXhJNHvRi2oXbrDrNKSGqT3UjWQ7dhc1kWVrosg+7bB21JZDpedcjRoEJQlIRA0oiR1ZaDNPbkpb3mGJy2PMXWTjQBasNqV4c4h58ptDrZVicUIUHZSx2zxxf+vNXeo6fWY/bn09K4dba2Sla83kc10DiYZWU5gdW027zjvEmkUL1tr2/z5rfUNtddbrnGuxPExjq5Vr6m7Wypo+2uysoaYhY9vdlOvZ9TcXQUkCBgQ1oyRRyRRhg1OSCx9cqva5jA3YWLXR8hi5UZZhbTbHj3Kr31D7samT1b7Fvo5uXWaZlSeW28iSlpwpQGvKPLmcNSXIugk7qWbz/N0zlq85cQ8rx84jLfN72cMWm2xwvc65rJW7tckywNm8KeFurSZhlxx5kFoXssTwm0BWju7PjU/65t9BSQK2KmqnkkjGNKboiXDlxo3KtbEQCtviVoywqbWgLBbKyiH1Dcp87MFC8XthUyml3FDKKQux5wpTsZIIs6WsMhVfVigZV+G65nXKlg0tSokwhJlMTtnU2qZc2bRO2ZIqKOuHNyjzsWII18TCJ5TB9zoAvxRvKGOlill0/8VXVZZjBREOBIKSBCSiBiqJFDFmNm6txJRQQ7hXY045sdRsrEspR8XOJhwZq4qwLpVWFuLPhBJZCIcVMsrxuUZlY6wqwmxrUVluMraua1IWo7XKtpRxxKiRypeaI2W5nFLW5+qUDXHsJNxlWKNy9IYVyiN2G6OsL7QpZeKhTj4khSyqIsrlNERmGjLbcKBQA5UkYKBRA62brmDWv/XxdmRMn7E0RfTIUmutvFC21kKh1cao7u3WDTjz7fupfV7/jaIb7l6stjjCeoebXO9u0U0eTqetVdU4xFo1I93ItNOmWeb2wYXWenlgjZ2/2GCtnvFZe6zHTLFc63SX4bV8bfy9s+2jTSQesf+xf92N0+ZhnlGq/Yn4T2bT6NveXVHNsQHbCWonT+LGorblLc/QkrORX80un2DZiii617pgouuW2jyYNc4Pxm40nzx830lqD3SdKS+4CTv3LnhB7eq87V92c4TrnSJNcHmT4w42BXnZOf6f5ixS2zbGemOGly0fcsbe1rlzuMvLcBeUc5h76u1K0v5ncNrh3Lfjufn+3Df/7tveXVHNsQHbCWpISfjNtsxnyXls0c3qz7v6bj05UXTuvCVqVw8drraxzc4z0vUBHXmA9dUcOMbOx3GLXGzjErjRMBdLzLSQJVpmoUd027/siDdztsP6tCnNiLgFI/jvY2aoHe+KX+/OU+eedvtyKklPn/2c3fznuPkIShKQiNpp3XAC90HejXltc7/yjHGd84q1Pq5ZYH0p+Z1sNYBym7V6yq22Z6MbPT92uPUaT9/P2h2us1izrAKezhI7XbRslR2/Yr31/m7MWcFSO7jYaK2NlT1rylS1h46wAu/hlCBT7BpztP9PpZWa+NjtFpQkYFBi0CsJoDZznoKLUZpdjGI6EUVXPWhz+R7baK2fkltVoGmdjV3LZexM6aybK+zmyQxNmzLVudYMvb/FkilOU8pim8jN7Mu6fEmby6MsL1mrawe3Pc2Nzj/3kH3VWpsqPn/Bvo9cPqb9zoKSBNQyakZJOAM9oZxvnVOSeautWfKnf1neYnm9xSLNJRtYMrrOXLLUZq2QgnPRvBsI1ixD5GOU3Qy9rHPltHs6mZLFPplWU4JhBWvm5HO2Q8tYu16mzT6fvM4SNmccNl3tvm58y3C3JlOGVRtLVv5uSuIjKEnAYEYNKAlHmu0orNXvJmdtDn8U3fmsZVofWuA+ceuMTJ1kGdAp+1vCo8XlQeY+afstabUzN+VMMZg5OKRgscru9fb5u2bYUkcT9N8oWrzclGP2wmfVltps/1MPOVDtjOGmFCNdyYe6VlnOlTuFkrQHHx742NmgJAGDEv2mJNWi1M2HrH67rEP7t/QSP7LgebWNI63zZM8JpiDs7wbLRy+7Ay+fvVDtqpy1YlJuzbS6laZMFxxnY1KnukaOtY06rmv60HH9nZ3l+3r3fxln6dVtX1G6EhJClf5AUJKARNSQknRFUu3OuzdV5XLWrGB0V95ZGe8lWOnWXvvx/c+pXbzBtIa16HdNWV/PpcdbBtWyLrFyuNiDx1dfb7FPqeSUIu2X0L8DgKKYaccgUBAQlCQgETWjJEnwb4O3VhTdGmlF3irh3n1Hm8LGz0fRzQtsbflHl5ptcytBH7S7tWY+duDeaodUVIquqKwotYegJAGJ2GaUxEdrq2U2iRU6YB5ecu2RjW5tZxup2tE6MX3paMXYvLwOBeKxoVi+clS+fu0hKElAIrZZJUmGtX54ywXrnZBHwXtcl0u77VgvpWvzw1eWbQlBSQISse0rSTfH5wM/b+FiC+c3/ij97tj2FKMSgpIEJGIbVpKelaIi3NrzFTOf249wdENQkoBEbIeVRCShJzp4mwFBSQJ6ge2wdRPQVwQlCUjEtl9JQoxRNYKSBCQiVJKARIRKEpCIPlcSaQxt6w2i7Qm9+XsGJQlIRNV5kjVrbA7uV77yFbVXX3212kzGxme84x3vUPvHP/5R7ciRXV/ez+Wx/phQPmf0e10dY8YMfO+Pac1k3SRfB/Yr8bI8B38/Rphxvd6OLGtx79MZMsStZuDOQ7n8cSYbN9oo/JdesnUkv/nNb6r9+c9/rnb0aJsnRLkB5/HvG1T6nOdy8y03q507d67an/3sZ2o3dZ9BSQISsdmVRMZwCr/73e8qJ0yYoGxqalKKZwm///3vKz/60Y8qX3/9dSWQmi8UBRGKB+PFAr4XBRGKBwrFM4R8D4ql+POYPtgvlU4pRUE6qwjnEw8UynwdIffpX9cH5Qdscz4flIfrsO2D4ymHX04fnEeUTOg/T8DzlPlDzCGqhKAkAYnY7Jjk4YcfVnvRRRepvflm+60jZmhosFHonP6yyy5Ty2/thz70IbVFt4bYN77xDbX8JvObfu+996qdNWuW2vvuu0/tr3/9a7Uc/4c//EHtvvvaykLEQAcccIDa73znO2rxqj//+c9q//1ve3PWWWedpfaKK65QO3Sozewjdvj85z+v9je/+Y1acPfdd6s94ogj1OKVy5bZagXve9/71D799NNqP/KRj6glBjnnnHPUzpkzR+3BBx+s9qabblLb2Ghv2jr//PPVVrr+kUceqRY88sgjag899FC106ZNU3vCCSeoXbXK1tL277cnBCUJSESvlQQPQSkuueQStRx+wQUXqGU/fi/5njm5gM+pyc8+a+t7XHrppWrnz5+v9lOf+pRaPB8PpdWE0rz1rW9V+8UvflHtLrvYO6m+/vWvq8VzH3vsMbW///3v1b76qq2lhpJcfPHFavHMb33rW2q5nwsvvFAtSkr5brnlFrVjx9pS05/5zGfUomC7724rSfPcJk60mYFve9vb1P7kJz9Ri+KOGWPvCvzBD36gFgXkfh566CG1XP+GG25QO3y4LXtwyimnqKX1gsJ+4QtfUMv9/OIXv1Dr/306IyhJQCKYkJYIP5ImFsBDyBMQi7A/HoDNZu2Szc021/aFF2xN99NPP10tv8FTp9os/qOPPlrtvHnz1O7k1mU9/vjj1RJz4EGHH3642pdftnVFwLBhtl7rYYcdpnaHHdy78pwHEQuMGGHrmaxbZ+u0Pv7442q//OUvqyVWOuSQQ9Qec8wxatevt0XquS/KyfNBgVECsHChrYvC9cDatbae5D333KOWmI3nPGXKFLXcD8dTjpkzZ6pFqXjun/zkJ9WSz0q3rwJZGUFJAhLR60oiNVEoiiCUmEIosYRQMo1CURAh7XTyALTLyR+QT3nuueeUnBdwnPw2CznvqFGjlJMnT1aKQqASmwJ5hvHjxyvF44WSaeycbSQfwveUS2IUobQChNyvtMaETz31VBe25zVixUV1BTwX8hOSmRZSDr73n4coqlCUTshzuPLKK5VLly5VPvHEE0pRIiHnK5fiv1dM8ld8ns7Efw+3tm0lBCUJSESvKwmeTM0/6qijlA8++KBSWgm0FHqCtCaE119/vRJPkNhAyHlBLhsrSczFixcr8TQ8kPKgSEnAc6TvSIgyomx8jwejZBJbCFFM9vMpMZUQhcPjUVzI9VDWQqGg5Hu2ud+dd95ZuWTJEqW/P/zwhz+slFaMkOe6YcMGJRlmrg9RvE0hKElAInrdupHaKpDaJ6BVMWmSrZr+29/+Vu1Xv/pVtewnKiMgH3LNNdeoFS8RcB4yjAcdZKsc/vOf/1RLpvJLX/qSWloPROucR7yrJ4jaCDqrlIBWGF7U+fdfsOMOtjra3nvbCkdkcMnDPP/882rf//73q7388svV7rabrRcrcYngtddeU7vHHnuoZT/ilPe+971qRY0E3Bettf32s3cGkoch87pgga2hL+oh4PnSKvzhD3+o9plnnlFLK+d3v/udWv4+vUFQkoBE9FlJ8EzyCVddeZXas885Wy2eTeaVTCgZU+kp7gz6Ls477zy15C9QBjKq+++/v9oHHnhALXkEPA9PxEPIJwC2fcXBozmO+yPiJ5NM3w33x/OgD0nis84gr7HPPvuopZwf//jH1ZLppEecuOqMM85Qi7J+4hOfUPu1r31NrcRJAs73q1/9Si19R/Q1oTjHHXecWo770Y9+pJZxLNzvphCUJCARW2wGH57s/7aTaexNje0MzoMHAH8sB2NCfCUBfC45AgEK0dfy+EAp8Wiu6ysu2yiYfz+bCxQDZeN6/nOotO2Xb1PPo+sTDQjoAVtMSSqhkof3FdLWF9C3A3zFwcNQMOBfn1aS79koQ7VKU+m+edwoEUoAeuPZmwLH02rzlQagyKWyK6frw+kp+1rdXy5gu0DVSpJU8yt9jwL4HodnU9M7j0PtDBTDHwHHdZJ+i7H+ddgPcLy/n3/9SkqHYvjKVgmVFMj/vNJ5Kx0P/Fiq0t+tM3o+U0BAJ2z1mITTYyvVcJSF38a8e+slnooHUPO3VCsB+OX0W0NJ83V6C87fGw8eLAhKEpCIra4kPqr1JKL2bMZ+UzfXowG/4WRe/T6eSspHBtdvnVTan+tw30FJArYp9JuSMA+EPgZ6ixmN7uc7GLP5gQ98QC2eyKjwHXe0Xtot7ZF+foHR7fTiMgq9Eoid6Othf0b3g6AkAdsU+q2SiIcK3/3udytlNLtwxYoVSn9kGmM1RUGEjCllzKgoD+rTG4hgbko0K30vHi8UhUAlBOxP+QD7Sy+vkBF8/YVK91ENgpIEJKLfYpLZs2erZYQX65ScfPLJapnHQuvg29/+tlpiD2IaZqTJ+FjB7bffrpbffn7rGcfBHOV99rZtWkPXXXed2rPPtnEwPIbrr7te7cn/ZeWSFREEXO/vf/+72jvuuEMt4zaYIch5iEmY+0uswzgSUUUBMwmZR3PbbbepJQbieRAbyQoOAlpXjAhkhJqfyfZbX5uDoCQBibBkQz+APg08bc8991SLwjD7ffVqexveypUr1b7nPe9Re//996sln/Hkk0+qZQ7tK6/YWzhZtYA5xSgXI8W43qOPPqqWPhhWbDr33HPVHnW0xRH0jfztb39TizK98cYbavFgZuszex8PJs5CERih949//EMtqyh89rOfVXvttdeq/d73vqf2phtthJrMqREwF5qxs6eeeqravfbaSy0zEbdkRjooSUAi+q2SiCcJif5l9LbwxRdfVNLaYX6LjDoXMn9ERnZ1Hp8qHiuUGEEoo8uFnF+USihKIJReXKGsKiCcMWOGUpRNKEonlNHkQubb0JqSPIeQ8jC/hfOwH60wiRmEolBC6YMSyphTocQcQuYByah5IeXl+Pvuv0/5zne+U8n+PJ+TTjpJybwcnjOtv762AntCUJKARPRbJZHffqGMYxDKbHvhuHHjlJJhFcpvtXDihIlKlIE5v+RT8NAzzzxTiadCWWFIiFIUirESxVy+fLmS/fA8lABwXfIgu+66q5JtyotySAwgpHycj5mKHCfzjIQoH5+TR+J8lI9ySOZZyDbPQ1pVQplfI0SBKA+sBkFJAhLRb5UED8Bz+W2V+TRCWftLKGuYCafPmK7Ew/yM51//+lclHomyoFjXuznHKIm0NoTEGv4cYmIB5s4CPud4FIIYhm0UEqIQeLKvgIDZ/tKrLaT83C8xBQpbyMeKGDPfFn8ek/1Z5RIl4r63BIKSBCSi3yoJHglQFmbhyww+IZ6HxwM8k1YOisQ264awLseNN96oxCMhsZDMNRYSW3CcrKAklDXRhHgq16F8eDjHc34+Zz9iBI7H0xuHxUoUUzLAQmImngvKJSsZCSU/Q45GsHrNaiWxl6w+KaQVx3nYrgZBSQIS0W+VBCXgtxIPI58hGcvOZH0PwG8xUT15BVlzTUhsgmfJnFohvczENrJ+rFBWQxASG9HK+tznPqeUDLAQj/Z/41EO8iacH6KcxDgoCedpbYv3iwm4DoqIAkjfj5AVt7O5OHaJKas8ClmBiftCmTie7WoQlCQgEf3WC8yMOWn7CySeEPiXFy8UEL+wH5DfewHHYeX3V8BxfE4Lhr4jH1xP4geBXy7O64Pf+Upzi/1yUi5RU4F/X4DjKA/bgPNl0qYOqIT/3ChP0n30Bj2XNCCgE/pNSfzLbG7N3hKeUYuo9s8UlCRgqyJUkoBEhEoSkIhQSQISESpJQCJCJfEgrYh+avDVDEIlCUhEv68qsLkgw9my0eab8N4Y3pDFPBc/k8lxrA3mZzLZBuxPJpP9pN9FID24Ah5bX/MP0t8jkDEnAlZ25g1brOws/UgCzl/tnynkSQK2KmqmktCbKStCC8XDhYy2p7cX0OssfStCUQwhn7Ptg+twfn8ciHi0UFY+6rz6EeNOAPsBtqVvRSiK15mUi7GtXFeUDXUbKAQlCUhEzcQkgLdtMlOfubn8hrN2uw/ezsBbNplBKCscCIgRWMOd3lTepsl6KoA5uLw7kN5m5gQzd5j1V2Ssi4BY6oMf/KBaGekvYGYh7xaU8bkC3upZ7Z8pxCQBWxU1oyTMgWWOLKsO8JYH5tjy1k0Z5SWQ9/sJUBjm3uLpn/70p9VOnz5dLcf/5S9/UctbMVhdgDnHJ554olrm7rIqAG+1kPhC8NOf/lQtbwXl/cOMV0VhuB/mMFN+WlPVIihJwFbFoKkkjHkVYetJ3GjF8DZOebOVUGbTC3n7JnOKAaPimYMrb8ISMmaUsaFcn1bGnXfeqZQ3eQkZe8rxMptfuGjRIiWtJcj1GLvKWF55s5WQVg1jZbk+n9fXxcfFBKIE1bAaBCUJSMSgqSR4HPkBH+RHpLUgZNQ4Hi4rAQnlt5/ff8H8+fOVjFqXFaeF5EEgc3bxbMrDWzp9z2QOLgrHDD2uw/uMqwXXG0gEJQlIxKCpJPwW45GAdTfmzp2rxHPxeGIY1jW56667lNIaEhILECuk0rFnxmQboABkPJnje8899yi5DvNqiF1QNrY5DoVj/1pGUJKARAyaSoKnoij0Wciqi0JW9mFmH7EFYCYdCoICzZo1S8kKR7yxnDm88p5iIcpC3worG8lqiEJiF45jBiFzcFEMZhiiKNWC5zKQCEoSkIhBm3GVeEPAOBGZ7ypg3dfO8URnMC6DXAkZz1tvvVUtqxWKCggklyEQdRCwSiOo1HdD5pc3n1Me1oU97bTT1B526GFq2/J2P/T1cLyon4D1XgFr6PP9QCIoSUAiBlxJpEXQGRKPCPicHEFfcwWMwZCWjFrvPOvXr1dLX83MmTPVnn6aeToj03zwuKrNXVR7f/2JoCQBiRh0MUmSp6IQvqdX+nzevHlqiT2khdIZjP9g3AffM76EbX8WfyX45WcbSzaZ8SqVgNKgrAOJoCQBiai5kWnVwr9dX7EqKRLg+N7GEOyP7W3MResuSXH6A0FJAhKx3SlJEgZTLDBYEJ5EQCJCJfEgsUFv443tBaGSBCQiVRwkMclA11aLRCqj2vIlnT8JA3n9oCQBieiFklTrAz56rpeVa+uWFrqe443Kd2nfpCsc11uU2u+jr3458NcPShKQiFRZXraySVTyMf/z3ta3SvtV8pT+un6lx8B1/PL19frVKUkUbbrPaGuiryUO2A4RMq4BiQhKEpCIoCRVotLDq64tMrgQlCQgAVH0/5Xx5rbU6Iz+AAAAAElFTkSuQmCC;" vertex="1" parent="1">
          <mxGeometry x="-697.0399999999998" y="-980.25" width="33.44" height="41.25" as="geometry" />
        </mxCell>
        <mxCell id="WXrp-uN07uE1j_KBOkGB-69" value="" style="image;aspect=fixed;html=1;points=[];align=center;fontSize=12;image=img/lib/azure2/management_governance/MachinesAzureArc.svg;" vertex="1" parent="1">
          <mxGeometry x="-638.8100000000001" y="-896.25" width="22" height="34" as="geometry" />
        </mxCell>
        <mxCell id="WXrp-uN07uE1j_KBOkGB-70" value="&lt;div style=&quot;text-align: center;&quot;&gt;&lt;span style=&quot;font-size: 10px; font-weight: normal; background-color: initial;&quot;&gt;Azure Arc enabled servers&lt;/span&gt;&lt;/div&gt;&lt;div style=&quot;text-align: center;&quot;&gt;&lt;/div&gt;" style="text;whiteSpace=wrap;html=1;fontStyle=1" vertex="1" parent="1">
          <mxGeometry x="-675.9299999999997" y="-862.25" width="98" height="30" as="geometry" />
        </mxCell>
        <mxCell id="WXrp-uN07uE1j_KBOkGB-71" value="" style="endArrow=classic;html=1;rounded=0;dashed=1;" edge="1" parent="1">
          <mxGeometry width="50" height="50" relative="1" as="geometry">
            <mxPoint x="-711.2299999999999" y="-943.25" as="sourcePoint" />
            <mxPoint x="-646.68" y="-879" as="targetPoint" />
            <Array as="points">
              <mxPoint x="-711.68" y="-879" />
            </Array>
          </mxGeometry>
        </mxCell>
        <mxCell id="WXrp-uN07uE1j_KBOkGB-72" value="" style="endArrow=classic;html=1;rounded=0;dashed=1;" edge="1" parent="1">
          <mxGeometry width="50" height="50" relative="1" as="geometry">
            <mxPoint x="-538.0199999999999" y="-941.75" as="sourcePoint" />
            <mxPoint x="-606.68" y="-879" as="targetPoint" />
            <Array as="points">
              <mxPoint x="-537.68" y="-879" />
            </Array>
          </mxGeometry>
        </mxCell>
        <mxCell id="WXrp-uN07uE1j_KBOkGB-73" value="" style="image;aspect=fixed;html=1;points=[];align=center;fontSize=12;image=img/lib/azure2/management_governance/MachinesAzureArc.svg;" vertex="1" parent="1">
          <mxGeometry x="-280.2000000000001" y="-981.25" width="22" height="34" as="geometry" />
        </mxCell>
        <mxCell id="WXrp-uN07uE1j_KBOkGB-74" value="&lt;div style=&quot;text-align: center;&quot;&gt;&lt;span style=&quot;font-size: 10px; font-weight: normal; background-color: initial;&quot;&gt;Azure Arc enabled servers&lt;/span&gt;&lt;/div&gt;&lt;div style=&quot;text-align: center;&quot;&gt;&lt;/div&gt;" style="text;whiteSpace=wrap;html=1;fontStyle=1" vertex="1" parent="1">
          <mxGeometry x="-302.31999999999977" y="-953.25" width="98" height="30" as="geometry" />
        </mxCell>
        <mxCell id="WXrp-uN07uE1j_KBOkGB-75" value="" style="endArrow=classic;html=1;rounded=0;dashed=1;" edge="1" parent="1">
          <mxGeometry width="50" height="50" relative="1" as="geometry">
            <mxPoint x="-203.19999999999987" y="-964.5899999999999" as="sourcePoint" />
            <mxPoint x="-243.2" y="-964.5899999999999" as="targetPoint" />
          </mxGeometry>
        </mxCell>
        <mxCell id="WXrp-uN07uE1j_KBOkGB-76" value="" style="shape=image;html=1;verticalAlign=top;verticalLabelPosition=bottom;labelBackgroundColor=#ffffff;imageAspect=0;aspect=fixed;image=https://cdn4.iconfinder.com/data/icons/evil-icons-user-interface/64/download-128.png;direction=south;" vertex="1" parent="1">
          <mxGeometry x="-392.8199999999998" y="-768.49" width="45.5" height="45.5" as="geometry" />
        </mxCell>
        <mxCell id="WXrp-uN07uE1j_KBOkGB-77" value="" style="endArrow=classic;html=1;rounded=0;entryX=0.676;entryY=1.012;entryDx=0;entryDy=0;entryPerimeter=0;" edge="1" parent="1" source="WXrp-uN07uE1j_KBOkGB-76" target="WXrp-uN07uE1j_KBOkGB-52">
          <mxGeometry width="50" height="50" relative="1" as="geometry">
            <mxPoint x="-347.32" y="-744.37" as="sourcePoint" />
            <mxPoint x="-347.3" y="-804.384" as="targetPoint" />
          </mxGeometry>
        </mxCell>
        <mxCell id="WXrp-uN07uE1j_KBOkGB-78" value="" style="endArrow=none;dashed=1;html=1;rounded=0;" edge="1" parent="1">
          <mxGeometry width="50" height="50" relative="1" as="geometry">
            <mxPoint x="-374.82" y="-806.75" as="sourcePoint" />
            <mxPoint x="-16.19999999999999" y="-807" as="targetPoint" />
          </mxGeometry>
        </mxCell>
        <mxCell id="WXrp-uN07uE1j_KBOkGB-79" value="&lt;span style=&quot;color: rgb(0, 0, 0); font-family: Helvetica; font-style: normal; font-variant-ligatures: normal; font-variant-caps: normal; font-weight: 400; letter-spacing: normal; orphans: 2; text-indent: 0px; text-transform: none; widows: 2; word-spacing: 0px; -webkit-text-stroke-width: 0px; background-color: rgb(251, 251, 251); text-decoration-thickness: initial; text-decoration-style: initial; text-decoration-color: initial; float: none; display: inline !important;&quot;&gt;&lt;font style=&quot;font-size: 8px;&quot;&gt;IT Cloud Operations&lt;/font&gt;&lt;/span&gt;" style="text;whiteSpace=wrap;html=1;align=center;" vertex="1" parent="1">
          <mxGeometry x="-474.94" y="-36" width="70" height="30" as="geometry" />
        </mxCell>
        <mxCell id="WXrp-uN07uE1j_KBOkGB-80" value="" style="image;aspect=fixed;html=1;points=[];align=center;fontSize=12;image=img/lib/azure2/azure_stack/User_Subscriptions.svg;" vertex="1" parent="1">
          <mxGeometry x="-454" y="-137" width="34" height="33" as="geometry" />
        </mxCell>
        <mxCell id="WXrp-uN07uE1j_KBOkGB-81" value="&lt;font style=&quot;font-size: 8px;&quot;&gt;User(s) Subscription&lt;/font&gt;" style="text;html=1;strokeColor=none;fillColor=none;align=center;verticalAlign=middle;whiteSpace=wrap;rounded=0;" vertex="1" parent="1">
          <mxGeometry x="-477.93999999999994" y="-111.75" width="80" height="30" as="geometry" />
        </mxCell>
        <mxCell id="WXrp-uN07uE1j_KBOkGB-82" value="" style="endArrow=classic;html=1;rounded=0;" edge="1" parent="1">
          <mxGeometry width="50" height="50" relative="1" as="geometry">
            <mxPoint x="-440" y="-140" as="sourcePoint" />
            <mxPoint x="-440.15" y="-163" as="targetPoint" />
          </mxGeometry>
        </mxCell>
        <mxCell id="WXrp-uN07uE1j_KBOkGB-83" value="" style="rounded=0;whiteSpace=wrap;html=1;fillColor=#F7F7F7;strokeColor=#23445d;" vertex="1" parent="1">
          <mxGeometry x="-785.49" y="-588.5" width="188.04" height="380.5" as="geometry" />
        </mxCell>
        <mxCell id="WXrp-uN07uE1j_KBOkGB-84" value="" style="image;aspect=fixed;html=1;points=[];align=center;fontSize=12;image=img/lib/azure2/management_governance/Azure_Arc.svg;" vertex="1" parent="1">
          <mxGeometry x="-722.05" y="-581.25" width="69" height="52" as="geometry" />
        </mxCell>
        <mxCell id="WXrp-uN07uE1j_KBOkGB-85" value="&lt;span style=&quot;font-weight: normal;&quot;&gt;&lt;font style=&quot;font-size: 10px;&quot;&gt;Azure Arc&amp;nbsp;&lt;/font&gt;&lt;/span&gt;&lt;div style=&quot;text-align: center;&quot;&gt;&lt;/div&gt;" style="text;whiteSpace=wrap;html=1;fontStyle=1" vertex="1" parent="1">
          <mxGeometry x="-710.2" y="-540" width="65" height="30" as="geometry" />
        </mxCell>
        <mxCell id="WXrp-uN07uE1j_KBOkGB-92" value="" style="rounded=0;whiteSpace=wrap;html=1;" vertex="1" parent="1">
          <mxGeometry x="-376.45" y="-647.6199999999999" width="330" height="459.62" as="geometry" />
        </mxCell>
        <mxCell id="WXrp-uN07uE1j_KBOkGB-93" value="" style="rounded=0;whiteSpace=wrap;html=1;fillColor=#F7F7F7;strokeColor=#23445d;" vertex="1" parent="1">
          <mxGeometry x="-357.45" y="-620" width="290" height="412" as="geometry" />
        </mxCell>
        <mxCell id="WXrp-uN07uE1j_KBOkGB-94" value="" style="image;aspect=fixed;html=1;points=[];align=center;fontSize=12;image=img/lib/azure2/general/Resource_Groups.svg;" vertex="1" parent="1">
          <mxGeometry x="-395.74" y="-670" width="52.06" height="49" as="geometry" />
        </mxCell>
        <mxCell id="WXrp-uN07uE1j_KBOkGB-95" value="&lt;b&gt;&lt;font style=&quot;font-size: 10px;&quot;&gt;Resource Group&lt;/font&gt;&lt;/b&gt;" style="text;html=1;strokeColor=none;fillColor=none;align=center;verticalAlign=middle;whiteSpace=wrap;rounded=0;strokeWidth=1;rotation=0;" vertex="1" parent="1">
          <mxGeometry x="-355.8200000000001" y="-647.62" width="70.5" height="30" as="geometry" />
        </mxCell>
        <mxCell id="WXrp-uN07uE1j_KBOkGB-96" value="" style="image;aspect=fixed;html=1;points=[];align=center;fontSize=12;image=img/lib/azure2/storage/Storage_Sync_Services.svg;" vertex="1" parent="1">
          <mxGeometry x="-161.35999999999993" y="-585.7500000000001" width="72" height="60" as="geometry" />
        </mxCell>
        <mxCell id="WXrp-uN07uE1j_KBOkGB-97" value="&lt;span style=&quot;font-weight: normal;&quot;&gt;&lt;font style=&quot;font-size: 10px;&quot;&gt;Storage Sync Services&lt;/font&gt;&lt;/span&gt;&lt;div style=&quot;text-align: center;&quot;&gt;&lt;/div&gt;" style="text;whiteSpace=wrap;html=1;fontStyle=1" vertex="1" parent="1">
          <mxGeometry x="-181.44999999999993" y="-529.25" width="135" height="31" as="geometry" />
        </mxCell>
        <mxCell id="WXrp-uN07uE1j_KBOkGB-98" value="" style="image;aspect=fixed;html=1;points=[];align=center;fontSize=12;image=img/lib/azure2/management_governance/Recovery_Services_Vaults.svg;" vertex="1" parent="1">
          <mxGeometry x="-141.56999999999985" y="-471.87" width="69" height="60" as="geometry" />
        </mxCell>
        <mxCell id="WXrp-uN07uE1j_KBOkGB-99" value="" style="edgeStyle=orthogonalEdgeStyle;rounded=0;orthogonalLoop=1;jettySize=auto;html=1;" edge="1" parent="1">
          <mxGeometry relative="1" as="geometry">
            <mxPoint x="-258.2" y="-439.43" as="sourcePoint" />
            <mxPoint x="-315.0700000000001" y="-498.25" as="targetPoint" />
            <Array as="points">
              <mxPoint x="-315.2" y="-439.43" />
            </Array>
          </mxGeometry>
        </mxCell>
        <mxCell id="WXrp-uN07uE1j_KBOkGB-100" value="" style="image;aspect=fixed;html=1;points=[];align=center;fontSize=12;image=img/lib/azure2/storage/Azure_Fileshare.svg;" vertex="1" parent="1">
          <mxGeometry x="-250.9200000000001" y="-471.87" width="68" height="68" as="geometry" />
        </mxCell>
        <mxCell id="WXrp-uN07uE1j_KBOkGB-101" value="&lt;div style=&quot;text-align: center;&quot;&gt;&lt;span style=&quot;font-weight: normal; background-color: initial;&quot;&gt;&lt;font style=&quot;font-size: 10px;&quot;&gt;Azure File Shares&lt;/font&gt;&lt;/span&gt;&lt;/div&gt;&lt;div style=&quot;text-align: center;&quot;&gt;&lt;/div&gt;" style="text;whiteSpace=wrap;html=1;fontStyle=1" vertex="1" parent="1">
          <mxGeometry x="-250.92" y="-404.82" width="122.72" height="31" as="geometry" />
        </mxCell>
        <mxCell id="WXrp-uN07uE1j_KBOkGB-102" value="" style="endArrow=classic;html=1;rounded=0;strokeWidth=1;targetPerimeterSpacing=1;" edge="1" parent="1">
          <mxGeometry width="50" height="50" relative="1" as="geometry">
            <mxPoint x="-98.5899999999999" y="-357.82" as="sourcePoint" />
            <mxPoint x="-98.3399999999999" y="-382.32" as="targetPoint" />
          </mxGeometry>
        </mxCell>
        <mxCell id="WXrp-uN07uE1j_KBOkGB-103" value="" style="endArrow=classic;html=1;rounded=0;" edge="1" parent="1">
          <mxGeometry width="50" height="50" relative="1" as="geometry">
            <mxPoint x="-209.67999999999964" y="-357.32" as="sourcePoint" />
            <mxPoint x="-209.67999999999986" y="-382.32" as="targetPoint" />
          </mxGeometry>
        </mxCell>
        <mxCell id="WXrp-uN07uE1j_KBOkGB-104" value="" style="endArrow=none;html=1;rounded=0;" edge="1" parent="1">
          <mxGeometry width="50" height="50" relative="1" as="geometry">
            <mxPoint x="-210.06999999999996" y="-357.49999999999994" as="sourcePoint" />
            <mxPoint x="-98.31999999999992" y="-357.76000000000005" as="targetPoint" />
          </mxGeometry>
        </mxCell>
        <mxCell id="WXrp-uN07uE1j_KBOkGB-105" value="" style="endArrow=classic;html=1;rounded=0;exitX=0.202;exitY=1.041;exitDx=0;exitDy=0;exitPerimeter=0;" edge="1" parent="1" source="WXrp-uN07uE1j_KBOkGB-97">
          <mxGeometry width="50" height="50" relative="1" as="geometry">
            <mxPoint x="-154.10999999999999" y="-489.32" as="sourcePoint" />
            <mxPoint x="-154.10999999999999" y="-459.32" as="targetPoint" />
          </mxGeometry>
        </mxCell>
        <mxCell id="WXrp-uN07uE1j_KBOkGB-106" value="" style="image;aspect=fixed;html=1;points=[];align=center;fontSize=12;image=img/lib/azure2/other/Azure_Backup_Center.svg;" vertex="1" parent="1">
          <mxGeometry x="-193.57999999999993" y="-301.46" width="68" height="62" as="geometry" />
        </mxCell>
        <mxCell id="WXrp-uN07uE1j_KBOkGB-107" value="&lt;div style=&quot;text-align: center;&quot;&gt;&lt;span style=&quot;font-weight: 400;&quot;&gt;&lt;font style=&quot;font-size: 10px;&quot;&gt;Azure backup center&lt;/font&gt;&lt;/span&gt;&lt;/div&gt;&lt;div style=&quot;text-align: center;&quot;&gt;&lt;/div&gt;" style="text;whiteSpace=wrap;html=1;fontStyle=1" vertex="1" parent="1">
          <mxGeometry x="-215.32999999999987" y="-247.32999999999998" width="122.72" height="31" as="geometry" />
        </mxCell>
        <mxCell id="WXrp-uN07uE1j_KBOkGB-108" value="" style="endArrow=classic;startArrow=classic;html=1;rounded=0;" edge="1" parent="1">
          <mxGeometry width="50" height="50" relative="1" as="geometry">
            <mxPoint x="-153" y="-304" as="sourcePoint" />
            <mxPoint x="-152.79999999999993" y="-355.82" as="targetPoint" />
          </mxGeometry>
        </mxCell>
        <mxCell id="WXrp-uN07uE1j_KBOkGB-109" value="" style="image;aspect=fixed;html=1;points=[];align=center;fontSize=12;image=img/lib/azure2/storage/Storage_Accounts.svg;" vertex="1" parent="1">
          <mxGeometry x="-338.32" y="-573.5000000000002" width="48.13" height="38.5" as="geometry" />
        </mxCell>
        <mxCell id="WXrp-uN07uE1j_KBOkGB-110" value="&lt;div style=&quot;text-align: center;&quot;&gt;&lt;span style=&quot;font-weight: normal; background-color: initial;&quot;&gt;&lt;font style=&quot;font-size: 10px;&quot;&gt;Storage Account&lt;/font&gt;&lt;/span&gt;&lt;/div&gt;&lt;div style=&quot;text-align: center;&quot;&gt;&lt;/div&gt;" style="text;whiteSpace=wrap;html=1;fontStyle=1" vertex="1" parent="1">
          <mxGeometry x="-349.32" y="-534.6199999999999" width="122.72" height="26.5" as="geometry" />
        </mxCell>
        <mxCell id="WXrp-uN07uE1j_KBOkGB-111" value="&lt;div style=&quot;text-align: center;&quot;&gt;&lt;span style=&quot;font-weight: normal; background-color: initial;&quot;&gt;&lt;font style=&quot;font-size: 10px;&quot;&gt;Recovery Services Vault&lt;/font&gt;&lt;/span&gt;&lt;/div&gt;&lt;div style=&quot;text-align: center;&quot;&gt;&lt;/div&gt;" style="text;whiteSpace=wrap;html=1;fontStyle=1" vertex="1" parent="1">
          <mxGeometry x="-158.23999999999998" y="-420" width="92.92" height="31" as="geometry" />
        </mxCell>
        <mxCell id="WXrp-uN07uE1j_KBOkGB-112" value="" style="rounded=0;whiteSpace=wrap;html=1;dashed=1;fillColor=#dae8fc;strokeColor=#0f0f0f;" vertex="1" parent="1">
          <mxGeometry x="-547.45" y="-649" width="145.71" height="460" as="geometry" />
        </mxCell>
        <mxCell id="WXrp-uN07uE1j_KBOkGB-113" value="Azure AD tenant&lt;div style=&quot;text-align: center;&quot;&gt;&lt;/div&gt;" style="text;whiteSpace=wrap;html=1;" vertex="1" parent="1">
          <mxGeometry x="-517.2399999999999" y="-563.25" width="91.25" height="25" as="geometry" />
        </mxCell>
        <mxCell id="WXrp-uN07uE1j_KBOkGB-114" value="" style="image;aspect=fixed;html=1;points=[];align=center;fontSize=12;image=img/lib/azure2/identity/Azure_Active_Directory.svg;" vertex="1" parent="1">
          <mxGeometry x="-501.42999999999995" y="-615.5" width="57.15" height="52.25" as="geometry" />
        </mxCell>
        <mxCell id="WXrp-uN07uE1j_KBOkGB-115" value="" style="endArrow=classic;html=1;rounded=0;" edge="1" parent="1">
          <mxGeometry width="50" height="50" relative="1" as="geometry">
            <mxPoint x="-508.46999999999997" y="-385.82000000000005" as="sourcePoint" />
            <mxPoint x="-565" y="-385" as="targetPoint" />
          </mxGeometry>
        </mxCell>
        <mxCell id="WXrp-uN07uE1j_KBOkGB-117" value="" style="image;aspect=fixed;html=1;points=[];align=center;fontSize=12;image=img/lib/azure2/management_governance/Policy.svg;" vertex="1" parent="1">
          <mxGeometry x="-491.48999999999995" y="-408.51000000000005" width="43.47" height="46.37" as="geometry" />
        </mxCell>
        <mxCell id="WXrp-uN07uE1j_KBOkGB-119" value="" style="endArrow=classic;html=1;rounded=0;" edge="1" parent="1" source="WXrp-uN07uE1j_KBOkGB-76" target="WXrp-uN07uE1j_KBOkGB-114">
          <mxGeometry width="50" height="50" relative="1" as="geometry">
            <mxPoint x="-307.45" y="-728" as="sourcePoint" />
            <mxPoint x="-431.82" y="-641.25" as="targetPoint" />
          </mxGeometry>
        </mxCell>
        <mxCell id="WXrp-uN07uE1j_KBOkGB-120" value="" style="image;aspect=fixed;html=1;points=[];align=center;fontSize=12;image=img/lib/azure2/storage/Storage_Explorer.svg;" vertex="1" parent="1">
          <mxGeometry x="-336.32000000000005" y="-352.32" width="58.4" height="68" as="geometry" />
        </mxCell>
        <mxCell id="WXrp-uN07uE1j_KBOkGB-121" value="" style="endArrow=classic;html=1;rounded=0;" edge="1" parent="1">
          <mxGeometry width="50" height="50" relative="1" as="geometry">
            <mxPoint x="-315" y="-438.82" as="sourcePoint" />
            <mxPoint x="-315" y="-378.82" as="targetPoint" />
          </mxGeometry>
        </mxCell>
        <mxCell id="WXrp-uN07uE1j_KBOkGB-122" value="&lt;div style=&quot;text-align: center;&quot;&gt;&lt;span style=&quot;font-weight: normal; background-color: initial;&quot;&gt;&lt;font style=&quot;font-size: 10px;&quot;&gt;Azure Storage Explorer&lt;/font&gt;&lt;/span&gt;&lt;/div&gt;&lt;div style=&quot;text-align: center;&quot;&gt;&lt;/div&gt;" style="text;whiteSpace=wrap;html=1;fontStyle=1" vertex="1" parent="1">
          <mxGeometry x="-348.65000000000003" y="-269.57" width="122.72" height="31" as="geometry" />
        </mxCell>
        <mxCell id="WXrp-uN07uE1j_KBOkGB-124" value="&lt;div style=&quot;text-align: center;&quot;&gt;&lt;span style=&quot;font-weight: normal;&quot;&gt;Azure policy&lt;/span&gt;&lt;br&gt;&lt;/div&gt;&lt;div style=&quot;text-align: center;&quot;&gt;&lt;/div&gt;" style="text;whiteSpace=wrap;html=1;fontStyle=1" vertex="1" parent="1">
          <mxGeometry x="-506.3999999999999" y="-366.14" width="122.72" height="31" as="geometry" />
        </mxCell>
        <mxCell id="WXrp-uN07uE1j_KBOkGB-125" value="&lt;div style=&quot;text-align: center;&quot;&gt;&lt;span style=&quot;font-weight: normal;&quot;&gt;Azure Automation&lt;/span&gt;&lt;br&gt;&lt;/div&gt;&lt;div style=&quot;text-align: center;&quot;&gt;&lt;/div&gt;" style="text;whiteSpace=wrap;html=1;fontStyle=1" vertex="1" parent="1">
          <mxGeometry x="-517.2399999999999" y="-275.57000000000005" width="94.96" height="50.5" as="geometry" />
        </mxCell>
        <mxCell id="WXrp-uN07uE1j_KBOkGB-126" value="" style="image;aspect=fixed;html=1;points=[];align=center;fontSize=12;image=img/lib/azure2/management_governance/Automation_Accounts.svg;" vertex="1" parent="1">
          <mxGeometry x="-490.76" y="-311.9600000000001" width="42" height="42" as="geometry" />
        </mxCell>
        <mxCell id="WXrp-uN07uE1j_KBOkGB-130" value="" style="endArrow=classic;html=1;rounded=0;" edge="1" parent="1">
          <mxGeometry width="50" height="50" relative="1" as="geometry">
            <mxPoint x="-498.9399999999999" y="-290.96000000000004" as="sourcePoint" />
            <mxPoint x="-563.1899999999998" y="-290.62" as="targetPoint" />
          </mxGeometry>
        </mxCell>
        <mxCell id="WXrp-uN07uE1j_KBOkGB-136" value="" style="image;aspect=fixed;html=1;points=[];align=center;fontSize=12;image=img/lib/azure2/general/Resource_Groups.svg;" vertex="1" parent="1">
          <mxGeometry x="-714.6100000000001" y="-667" width="52.06" height="49" as="geometry" />
        </mxCell>
        <mxCell id="WXrp-uN07uE1j_KBOkGB-137" value="&lt;b&gt;&lt;font style=&quot;font-size: 10px;&quot;&gt;Resource Group&lt;/font&gt;&lt;/b&gt;" style="text;html=1;strokeColor=none;fillColor=none;align=center;verticalAlign=middle;whiteSpace=wrap;rounded=0;strokeWidth=1;rotation=0;" vertex="1" parent="1">
          <mxGeometry x="-726.72" y="-618.5" width="70.5" height="30" as="geometry" />
        </mxCell>
        <mxCell id="WXrp-uN07uE1j_KBOkGB-138" value="" style="endArrow=classic;html=1;rounded=0;" edge="1" parent="1">
          <mxGeometry width="50" height="50" relative="1" as="geometry">
            <mxPoint x="-510.67999999999984" y="-484.50000000000006" as="sourcePoint" />
            <mxPoint x="-570" y="-484" as="targetPoint" />
          </mxGeometry>
        </mxCell>
        <mxCell id="WXrp-uN07uE1j_KBOkGB-139" value="" style="endArrow=classic;html=1;rounded=0;" edge="1" parent="1">
          <mxGeometry x="-827" y="-684" width="50" height="50" relative="1" as="geometry">
            <mxPoint x="-435.99999999999994" y="-484.25" as="sourcePoint" />
            <mxPoint x="-383.43" y="-483.75" as="targetPoint" />
          </mxGeometry>
        </mxCell>
        <mxCell id="WXrp-uN07uE1j_KBOkGB-141" value="&lt;div style=&quot;text-align: center;&quot;&gt;&lt;span style=&quot;font-size: 10px; font-weight: normal; background-color: initial;&quot;&gt;Azure Arc&amp;nbsp; enabled servers&lt;/span&gt;&lt;/div&gt;&lt;div style=&quot;text-align: center;&quot;&gt;&lt;/div&gt;" style="text;whiteSpace=wrap;html=1;fontStyle=1" vertex="1" parent="1">
          <mxGeometry x="-744.3399999999999" y="-466.5" width="131.27" height="30" as="geometry" />
        </mxCell>
        <mxCell id="WXrp-uN07uE1j_KBOkGB-142" value="" style="image;aspect=fixed;html=1;points=[];align=center;fontSize=12;image=img/lib/azure2/management_governance/MachinesAzureArc.svg;" vertex="1" parent="1">
          <mxGeometry x="-641.4800000000002" y="-501" width="22" height="34" as="geometry" />
        </mxCell>
        <mxCell id="WXrp-uN07uE1j_KBOkGB-143" value="" style="image;aspect=fixed;html=1;points=[];align=center;fontSize=12;image=img/lib/azure2/other/WAC.svg;" vertex="1" parent="1">
          <mxGeometry x="-627.3700000000001" y="-482" width="21.89" height="24" as="geometry" />
        </mxCell>
        <mxCell id="WXrp-uN07uE1j_KBOkGB-144" value="" style="image;aspect=fixed;html=1;points=[];align=center;fontSize=12;image=img/lib/azure2/management_governance/MachinesAzureArc.svg;" vertex="1" parent="1">
          <mxGeometry x="-757.4500000000003" y="-501" width="22" height="34" as="geometry" />
        </mxCell>
        <mxCell id="WXrp-uN07uE1j_KBOkGB-145" value="" style="image;aspect=fixed;html=1;points=[];align=center;fontSize=12;image=img/lib/azure2/other/WAC.svg;" vertex="1" parent="1">
          <mxGeometry x="-743.3400000000001" y="-482" width="21.89" height="24" as="geometry" />
        </mxCell>
        <mxCell id="WXrp-uN07uE1j_KBOkGB-146" value="" style="image;aspect=fixed;html=1;points=[];align=center;fontSize=12;image=img/lib/azure2/management_governance/MachinesAzureArc.svg;" vertex="1" parent="1">
          <mxGeometry x="-699.5800000000002" y="-501" width="22" height="34" as="geometry" />
        </mxCell>
        <mxCell id="WXrp-uN07uE1j_KBOkGB-147" value="" style="image;aspect=fixed;html=1;points=[];align=center;fontSize=12;image=img/lib/azure2/other/WAC.svg;" vertex="1" parent="1">
          <mxGeometry x="-685.47" y="-482" width="21.89" height="24" as="geometry" />
        </mxCell>
        <mxCell id="WXrp-uN07uE1j_KBOkGB-148" value="" style="endArrow=classic;html=1;rounded=0;" edge="1" parent="1">
          <mxGeometry width="50" height="50" relative="1" as="geometry">
            <mxPoint x="-733.49" y="-504" as="sourcePoint" />
            <mxPoint x="-719.94" y="-518.5" as="targetPoint" />
          </mxGeometry>
        </mxCell>
        <mxCell id="WXrp-uN07uE1j_KBOkGB-149" value="" style="endArrow=classic;html=1;rounded=0;" edge="1" parent="1">
          <mxGeometry width="50" height="50" relative="1" as="geometry">
            <mxPoint x="-635.7" y="-505.5" as="sourcePoint" />
            <mxPoint x="-652.1500000000001" y="-520" as="targetPoint" />
          </mxGeometry>
        </mxCell>
        <mxCell id="WXrp-uN07uE1j_KBOkGB-150" value="" style="endArrow=classic;html=1;rounded=0;" edge="1" parent="1">
          <mxGeometry width="50" height="50" relative="1" as="geometry">
            <mxPoint x="-687.8499999999999" y="-502.25" as="sourcePoint" />
            <mxPoint x="-687.79" y="-517.25" as="targetPoint" />
          </mxGeometry>
        </mxCell>
        <mxCell id="WXrp-uN07uE1j_KBOkGB-151" value="" style="endArrow=classic;html=1;rounded=0;" edge="1" parent="1">
          <mxGeometry width="50" height="50" relative="1" as="geometry">
            <mxPoint x="-686.2100000000003" y="-444.58000000000004" as="sourcePoint" />
            <mxPoint x="-686.74" y="-391.43" as="targetPoint" />
          </mxGeometry>
        </mxCell>
        <mxCell id="WXrp-uN07uE1j_KBOkGB-161" value="" style="verticalLabelPosition=bottom;html=1;verticalAlign=top;align=center;strokeColor=none;fillColor=#00BEF2;shape=mxgraph.azure.user;" vertex="1" parent="1">
          <mxGeometry x="-463.88" y="-60" width="39.88" height="34.75" as="geometry" />
        </mxCell>
        <mxCell id="WXrp-uN07uE1j_KBOkGB-162" value="" style="endArrow=classic;html=1;rounded=0;" edge="1" parent="1">
          <mxGeometry width="50" height="50" relative="1" as="geometry">
            <mxPoint x="-442" y="-70" as="sourcePoint" />
            <mxPoint x="-442" y="-90" as="targetPoint" />
            <Array as="points">
              <mxPoint x="-442" y="-64" />
            </Array>
          </mxGeometry>
        </mxCell>
        <mxCell id="WXrp-uN07uE1j_KBOkGB-163" value="12" style="ellipse;whiteSpace=wrap;html=1;aspect=fixed;fillColor=#4D9900;strokeColor=none;labelBackgroundColor=none;" vertex="1" parent="1">
          <mxGeometry x="-500.5" y="-106.25" width="23" height="23" as="geometry" />
        </mxCell>
        <mxCell id="WXrp-uN07uE1j_KBOkGB-164" value="9" style="ellipse;whiteSpace=wrap;html=1;aspect=fixed;fillColor=#4D9900;strokeColor=none;labelBackgroundColor=none;" vertex="1" parent="1">
          <mxGeometry x="-99.56999999999996" y="-592.75" width="23" height="23" as="geometry" />
        </mxCell>
        <mxCell id="WXrp-uN07uE1j_KBOkGB-165" value="11" style="ellipse;whiteSpace=wrap;html=1;aspect=fixed;fillColor=#4D9900;strokeColor=none;labelBackgroundColor=none;" vertex="1" parent="1">
          <mxGeometry x="-200.11999999999998" y="-305.9599999999999" width="23" height="23" as="geometry" />
        </mxCell>
        <mxCell id="WXrp-uN07uE1j_KBOkGB-166" value="8" style="ellipse;whiteSpace=wrap;html=1;aspect=fixed;fillColor=#4D9900;strokeColor=none;labelBackgroundColor=none;" vertex="1" parent="1">
          <mxGeometry x="-272.71999999999997" y="-581.25" width="23" height="23" as="geometry" />
        </mxCell>
        <mxCell id="WXrp-uN07uE1j_KBOkGB-167" value="2" style="ellipse;whiteSpace=wrap;html=1;aspect=fixed;fillColor=#4D9900;strokeColor=none;labelBackgroundColor=none;" vertex="1" parent="1">
          <mxGeometry x="-506.4" y="-865.25" width="23" height="23" as="geometry" />
        </mxCell>
        <mxCell id="WXrp-uN07uE1j_KBOkGB-168" value="1" style="ellipse;whiteSpace=wrap;html=1;aspect=fixed;fillColor=#4D9900;strokeColor=none;labelBackgroundColor=none;" vertex="1" parent="1">
          <mxGeometry x="-99.57" y="-904.75" width="23" height="23" as="geometry" />
        </mxCell>
        <mxCell id="WXrp-uN07uE1j_KBOkGB-169" value="4" style="ellipse;whiteSpace=wrap;html=1;aspect=fixed;fillColor=#4D9900;strokeColor=none;labelBackgroundColor=none;" vertex="1" parent="1">
          <mxGeometry x="-340.81" y="-744.37" width="23" height="23" as="geometry" />
        </mxCell>
        <mxCell id="WXrp-uN07uE1j_KBOkGB-170" value="5" style="ellipse;whiteSpace=wrap;html=1;aspect=fixed;fillColor=#4D9900;strokeColor=none;labelBackgroundColor=none;" vertex="1" parent="1">
          <mxGeometry x="-436" y="-596.5" width="23" height="23" as="geometry" />
        </mxCell>
        <mxCell id="WXrp-uN07uE1j_KBOkGB-171" value="6" style="ellipse;whiteSpace=wrap;html=1;aspect=fixed;fillColor=#4D9900;strokeColor=none;labelBackgroundColor=none;" vertex="1" parent="1">
          <mxGeometry x="-636.0699999999999" y="-569.75" width="23" height="23" as="geometry" />
        </mxCell>
        <mxCell id="WXrp-uN07uE1j_KBOkGB-173" value="10" style="ellipse;whiteSpace=wrap;html=1;aspect=fixed;fillColor=#4D9900;strokeColor=none;labelBackgroundColor=none;" vertex="1" parent="1">
          <mxGeometry x="-165.46999999999997" y="-453.37" width="23" height="23" as="geometry" />
        </mxCell>
        <mxCell id="WXrp-uN07uE1j_KBOkGB-174" value="3" style="ellipse;whiteSpace=wrap;html=1;aspect=fixed;fillColor=#4D9900;strokeColor=none;labelBackgroundColor=none;" vertex="1" parent="1">
          <mxGeometry x="-600" y="-782.37" width="23" height="23" as="geometry" />
        </mxCell>
        <mxCell id="WXrp-uN07uE1j_KBOkGB-175" value="" style="image;aspect=fixed;html=1;points=[];align=center;fontSize=12;image=img/lib/azure2/other/API_Proxy.svg;" vertex="1" parent="1">
          <mxGeometry x="-563.1899999999999" y="-766.37" width="32.21" height="18" as="geometry" />
        </mxCell>
        <mxCell id="WXrp-uN07uE1j_KBOkGB-176" value="&lt;span style=&quot;font-weight: normal;&quot;&gt;&lt;font style=&quot;font-size: 10px;&quot;&gt;Proxy&lt;/font&gt;&lt;/span&gt;&lt;div style=&quot;text-align: center;&quot;&gt;&lt;/div&gt;" style="text;whiteSpace=wrap;html=1;fontStyle=1" vertex="1" parent="1">
          <mxGeometry x="-561.48" y="-759.37" width="28.74" height="27.25" as="geometry" />
        </mxCell>
        <mxCell id="WXrp-uN07uE1j_KBOkGB-177" value="" style="endArrow=classic;html=1;rounded=0;fillColor=#1ba1e2;strokeColor=#006EAF;" edge="1" parent="1">
          <mxGeometry width="50" height="50" relative="1" as="geometry">
            <mxPoint x="-483" y="-803" as="sourcePoint" />
            <mxPoint x="-525.4" y="-756.75" as="targetPoint" />
            <Array as="points">
              <mxPoint x="-483.4" y="-756.75" />
            </Array>
          </mxGeometry>
        </mxCell>
        <mxCell id="WXrp-uN07uE1j_KBOkGB-178" value="" style="verticalLabelPosition=bottom;html=1;verticalAlign=top;align=center;strokeColor=none;fillColor=#00BEF2;shape=mxgraph.azure.azure_website;pointerEvents=1;" vertex="1" parent="1">
          <mxGeometry x="-658.6700000000001" y="-767.37" width="28" height="23" as="geometry" />
        </mxCell>
        <mxCell id="WXrp-uN07uE1j_KBOkGB-179" value="" style="endArrow=classic;html=1;rounded=0;fillColor=#1ba1e2;strokeColor=#006EAF;" edge="1" parent="1">
          <mxGeometry width="50" height="50" relative="1" as="geometry">
            <mxPoint x="-569.1700000000001" y="-756.73" as="sourcePoint" />
            <mxPoint x="-623.8900000000001" y="-756.48" as="targetPoint" />
            <Array as="points">
              <mxPoint x="-581.8900000000001" y="-756.48" />
            </Array>
          </mxGeometry>
        </mxCell>
        <mxCell id="WXrp-uN07uE1j_KBOkGB-180" value="&lt;span style=&quot;font-weight: normal;&quot;&gt;&lt;font style=&quot;font-size: 10px;&quot;&gt;Internet&lt;/font&gt;&lt;/span&gt;&lt;div style=&quot;text-align: center;&quot;&gt;&lt;/div&gt;" style="text;whiteSpace=wrap;html=1;fontStyle=1" vertex="1" parent="1">
          <mxGeometry x="-662.55" y="-754.25" width="28.74" height="27.25" as="geometry" />
        </mxCell>
        <mxCell id="WXrp-uN07uE1j_KBOkGB-181" value="" style="endArrow=classic;html=1;rounded=0;fillColor=#1ba1e2;strokeColor=#006EAF;" edge="1" parent="1">
          <mxGeometry width="50" height="50" relative="1" as="geometry">
            <mxPoint x="-648.21" y="-732.12" as="sourcePoint" />
            <mxPoint x="-648.54" y="-576.41" as="targetPoint" />
            <Array as="points">
              <mxPoint x="-648.21" y="-692.12" />
              <mxPoint x="-648.54" y="-636.41" />
            </Array>
          </mxGeometry>
        </mxCell>
        <mxCell id="WXrp-uN07uE1j_KBOkGB-182" value="&lt;font style=&quot;font-size: 10px;&quot;&gt;VPN site-to-site&lt;/font&gt;&lt;div style=&quot;&quot;&gt;&lt;/div&gt;" style="text;whiteSpace=wrap;html=1;align=center;rotation=90;" vertex="1" parent="1">
          <mxGeometry x="-261.72" y="-739.49" width="96.25" height="32.12" as="geometry" />
        </mxCell>
        <mxCell id="WXrp-uN07uE1j_KBOkGB-183" value="" style="image;aspect=fixed;html=1;points=[];align=center;fontSize=12;image=img/lib/azure2/networking/Virtual_Network_Gateways.svg;" vertex="1" parent="1">
          <mxGeometry x="-234.44" y="-591.75" width="45.98" height="61" as="geometry" />
        </mxCell>
        <mxCell id="WXrp-uN07uE1j_KBOkGB-184" value="&lt;font style=&quot;font-size: 10px;&quot;&gt;VPN Gateway&lt;/font&gt;&lt;div style=&quot;&quot;&gt;&lt;/div&gt;" style="text;whiteSpace=wrap;html=1;align=center;rotation=0;" vertex="1" parent="1">
          <mxGeometry x="-243.95999999999998" y="-538.2500000000001" width="63.02" height="32.12" as="geometry" />
        </mxCell>
        <mxCell id="WXrp-uN07uE1j_KBOkGB-185" value="" style="endArrow=classic;startArrow=classic;html=1;rounded=0;fillColor=#1ba1e2;strokeColor=#006EAF;" edge="1" parent="1">
          <mxGeometry width="50" height="50" relative="1" as="geometry">
            <mxPoint x="-235.8" y="-551.16" as="sourcePoint" />
            <mxPoint x="-287.5855097974097" y="-551.46" as="targetPoint" />
          </mxGeometry>
        </mxCell>
        <mxCell id="WXrp-uN07uE1j_KBOkGB-186" value="" style="endArrow=classic;startArrow=classic;html=1;rounded=0;fillColor=#1ba1e2;strokeColor=#006EAF;" edge="1" parent="1">
          <mxGeometry width="50" height="50" relative="1" as="geometry">
            <mxPoint x="-126.29" y="-598.49" as="sourcePoint" />
            <mxPoint x="-126.29" y="-798.49" as="targetPoint" />
          </mxGeometry>
        </mxCell>
        <mxCell id="WXrp-uN07uE1j_KBOkGB-187" value="" style="endArrow=classic;startArrow=classic;html=1;rounded=0;fillColor=#1ba1e2;strokeColor=#006EAF;" edge="1" parent="1">
          <mxGeometry width="50" height="50" relative="1" as="geometry">
            <mxPoint x="-217.28" y="-598.49" as="sourcePoint" />
            <mxPoint x="-217.28" y="-798.49" as="targetPoint" />
          </mxGeometry>
        </mxCell>
        <mxCell id="WXrp-uN07uE1j_KBOkGB-188" value="&lt;font style=&quot;font-size: 10px;&quot;&gt;Public Endpoint&lt;/font&gt;&lt;div style=&quot;&quot;&gt;&lt;/div&gt;" style="text;whiteSpace=wrap;html=1;align=center;rotation=90;" vertex="1" parent="1">
          <mxGeometry x="-169.82000000000002" y="-739.49" width="96.25" height="32.12" as="geometry" />
        </mxCell>
        <mxCell id="WXrp-uN07uE1j_KBOkGB-192" value="" style="rounded=0;whiteSpace=wrap;html=1;dashed=1;fillColor=none;" vertex="1" parent="1">
          <mxGeometry x="-764.5100000000001" y="-389" width="146.07" height="141.03" as="geometry" />
        </mxCell>
        <mxCell id="WXrp-uN07uE1j_KBOkGB-193" value="" style="image;aspect=fixed;html=1;points=[];align=center;fontSize=12;image=img/lib/azure2/management_governance/Log_Analytics_Workspaces.svg;" vertex="1" parent="1">
          <mxGeometry x="-672.7199999999999" y="-355.13999999999993" width="49.18" height="49.18" as="geometry" />
        </mxCell>
        <mxCell id="WXrp-uN07uE1j_KBOkGB-194" value="" style="image;aspect=fixed;html=1;points=[];align=center;fontSize=12;image=img/lib/azure2/devops/Application_Insights.svg;" vertex="1" parent="1">
          <mxGeometry x="-747.45" y="-354.8" width="37.25" height="53.34" as="geometry" />
        </mxCell>
        <mxCell id="WXrp-uN07uE1j_KBOkGB-195" value="&lt;div style=&quot;text-align: center;&quot;&gt;&lt;span style=&quot;font-weight: normal; background-color: initial;&quot;&gt;&lt;font style=&quot;font-size: 10px;&quot;&gt;Log Analytics Workspaces&lt;/font&gt;&lt;/span&gt;&lt;/div&gt;&lt;div style=&quot;text-align: center;&quot;&gt;&lt;/div&gt;" style="text;whiteSpace=wrap;html=1;fontStyle=1" vertex="1" parent="1">
          <mxGeometry x="-703.7299999999999" y="-309.96" width="98.25" height="31" as="geometry" />
        </mxCell>
        <mxCell id="WXrp-uN07uE1j_KBOkGB-196" value="&lt;div style=&quot;text-align: center;&quot;&gt;&lt;span style=&quot;font-size: 10px; font-weight: 400;&quot;&gt;Insights&lt;/span&gt;&lt;/div&gt;&lt;div style=&quot;text-align: center;&quot;&gt;&lt;/div&gt;" style="text;whiteSpace=wrap;html=1;fontStyle=1" vertex="1" parent="1">
          <mxGeometry x="-747.45" y="-305.96" width="59.96" height="31" as="geometry" />
        </mxCell>
        <mxCell id="WXrp-uN07uE1j_KBOkGB-197" value="7" style="ellipse;whiteSpace=wrap;html=1;aspect=fixed;fillColor=#4D9900;strokeColor=none;labelBackgroundColor=none;" vertex="1" parent="1">
          <mxGeometry x="-700.5799999999999" y="-366.65999999999997" width="23" height="23" as="geometry" />
        </mxCell>
        <mxCell id="WXrp-uN07uE1j_KBOkGB-198" value="" style="image;aspect=fixed;html=1;points=[];align=center;fontSize=12;image=img/lib/azure2/management_governance/Monitor.svg;" vertex="1" parent="1">
          <mxGeometry x="-498.11999999999966" y="-511.12" width="53" height="53" as="geometry" />
        </mxCell>
        <mxCell id="WXrp-uN07uE1j_KBOkGB-200" value="&lt;div style=&quot;text-align: center;&quot;&gt;&lt;span style=&quot;font-weight: normal; background-color: initial;&quot;&gt;&lt;font style=&quot;font-size: 10px;&quot;&gt;Azure Monitor&amp;nbsp;&lt;/font&gt;&lt;/span&gt;&lt;/div&gt;&lt;div style=&quot;text-align: center;&quot;&gt;&lt;/div&gt;" style="text;whiteSpace=wrap;html=1;fontStyle=1" vertex="1" parent="1">
          <mxGeometry x="-503.47" y="-461.37" width="80" height="31" as="geometry" />
        </mxCell>
        <mxCell id="WXrp-uN07uE1j_KBOkGB-201" value="" style="endArrow=classic;html=1;rounded=0;" edge="1" parent="1">
          <mxGeometry x="-827" y="-684" width="50" height="50" relative="1" as="geometry">
            <mxPoint x="-435.99999999999994" y="-385.83" as="sourcePoint" />
            <mxPoint x="-383.43" y="-385.33" as="targetPoint" />
          </mxGeometry>
        </mxCell>
      </root>
    </mxGraphModel>
  </diagram>
</mxfile>
